<svg width="543" height="482" viewBox="0 0 543 482" fill="none" xmlns="http://www.w3.org/2000/svg">
<g clip-path="url(#clip0_10_79)">
<path d="M353.477 476.61L251.757 282.508C251.728 282.033 251.589 281.573 251.352 281.168C251.115 280.763 250.788 280.427 250.399 280.188C249.953 279.917 249.443 279.787 248.93 279.812C248.913 279.811 248.897 279.812 248.88 279.811C248.863 279.812 248.847 279.811 248.83 279.812C248.135 279.778 247.453 280.029 246.928 280.514C246.404 281 246.077 281.681 246.016 282.415L138.208 476.61C138.028 476.94 137.911 477.303 137.864 477.68C137.817 478.057 137.841 478.44 137.933 478.807C138.026 479.174 138.187 479.518 138.405 479.82C138.624 480.122 138.896 480.375 139.207 480.565C139.519 480.755 139.862 480.878 140.218 480.928C140.574 480.977 140.936 480.952 141.283 480.854C141.63 480.755 141.955 480.585 142.24 480.354C142.525 480.122 142.764 479.834 142.943 479.504L248.807 288.811L348.741 479.504C348.92 479.834 349.159 480.122 349.444 480.354C349.729 480.585 350.054 480.755 350.401 480.854C350.748 480.952 351.11 480.977 351.466 480.928C351.822 480.878 352.165 480.755 352.477 480.565C352.788 480.375 353.06 480.122 353.279 479.82C353.497 479.518 353.658 479.174 353.751 478.807C353.843 478.44 353.867 478.057 353.82 477.68C353.773 477.303 353.656 476.94 353.477 476.61Z" fill="#3F3D56"/>
<path d="M232.025 443.308L243.522 440.516L238.819 392.251L221.85 396.371L232.025 443.308Z" fill="#FFB6B6"/>
<path d="M240.914 419.992L224.552 423.964L219.32 413.143L219.024 412.76C216.703 409.745 215.415 405.987 215.369 402.099L201.769 364.025L200.657 363.465C199.797 363.032 199.034 362.41 198.419 361.64C197.804 360.869 197.352 359.969 197.091 359C196.831 358.03 196.77 357.012 196.911 356.015C197.052 355.018 197.392 354.064 197.909 353.217L196.469 349.187L155.844 349.266L155.804 349.254L105.916 334.443L111.154 301.395L125.188 310.737C129.812 310.42 209.024 305.272 216.342 324.061C222.859 340.792 232.249 369.376 238.979 390.409C239.315 391.353 239.732 392.262 240.225 393.126C241.272 394.832 241.887 396.796 242.01 398.826C242.089 399.71 242.248 400.583 242.485 401.435C245.282 410.285 241.021 419.758 240.978 419.853L240.914 419.992Z" fill="#2F2E41"/>
<path d="M228.141 439.272L231.879 438.365L245.112 428.539L254.295 432.921L254.296 432.921C258.717 431.848 263.359 432.677 267.202 435.226C271.045 437.776 273.773 441.836 274.788 446.515L274.912 447.088L232.089 457.487L228.141 439.272Z" fill="#2F2E41"/>
<path d="M58.3813 440.356C59.5502 426.89 67.0032 413.407 78.9571 408.631C74.6096 422.599 75.0703 437.744 80.2576 451.387C82.2762 456.641 85.0382 462.262 83.4539 467.68C82.4681 471.051 79.8866 473.692 76.9627 475.388C74.0387 477.085 70.763 477.957 67.5281 478.813L66.904 479.396C61.3577 467.213 57.2123 453.823 58.3813 440.356Z" fill="#F0F0F0"/>
<path d="M79.0848 408.881C72.2996 417.467 68.2431 428.097 67.4914 439.262C67.2893 441.663 67.4459 444.082 67.9556 446.431C68.5219 448.702 69.6526 450.772 71.2301 452.424C72.6717 453.996 74.3182 455.427 75.3737 457.342C75.9002 458.331 76.2233 459.427 76.3217 460.557C76.4201 461.687 76.2917 462.827 75.9447 463.901C75.1461 466.601 73.4785 468.837 71.7758 470.963C69.8854 473.323 67.8865 475.744 67.1456 478.813C67.0559 479.185 66.5158 479.016 66.6055 478.645C67.8945 473.304 72.6563 470.134 74.826 465.289C75.8385 463.029 76.2134 460.432 75.1297 458.119C74.1821 456.096 72.4853 454.619 71.0127 453.041C69.4515 451.453 68.2814 449.484 67.6047 447.307C66.9837 444.993 66.7392 442.585 66.8818 440.184C67.1214 434.774 68.1632 429.437 69.969 424.37C71.9997 418.574 74.9522 413.189 78.6988 408.447C78.9308 408.153 79.3153 408.589 79.0848 408.881L79.0848 408.881Z" fill="white"/>
<path d="M67.5335 435.652C65.7807 435.264 64.2152 434.23 63.1165 432.733C62.0179 431.237 61.4577 429.375 61.536 427.482C61.5399 427.405 61.5719 427.332 61.6253 427.28C61.6788 427.227 61.7494 427.198 61.8225 427.2C61.8955 427.201 61.9651 427.232 62.0168 427.287C62.0684 427.342 62.098 427.415 62.0992 427.493C62.0233 429.256 62.5452 430.989 63.571 432.381C64.5967 433.772 66.0586 434.73 67.6928 435.081C68.0478 435.157 67.8865 435.728 67.5335 435.652H67.5335Z" fill="white"/>
<path d="M70.3999 451.729C73.4809 449.637 75.7038 446.393 76.6252 442.643C76.7162 442.272 77.2563 442.441 77.1654 442.812C76.1996 446.712 73.8799 450.083 70.6692 452.252C70.363 452.459 70.0954 451.934 70.3999 451.729H70.3999Z" fill="white"/>
<path d="M72.539 419.12C73.1877 419.42 73.8965 419.544 74.6018 419.482C75.3071 419.42 75.9869 419.174 76.58 418.765C76.8835 418.555 77.1508 419.08 76.8493 419.289C76.192 419.737 75.441 420.008 74.6619 420.079C73.8828 420.149 73.0992 420.016 72.3798 419.692C72.3095 419.668 72.2507 419.616 72.2154 419.547C72.18 419.478 72.1707 419.398 72.1893 419.322C72.2108 419.246 72.2596 419.183 72.325 419.145C72.3905 419.107 72.4674 419.098 72.5391 419.12H72.539Z" fill="white"/>
<path d="M116.525 431.336C116.339 431.473 116.153 431.61 115.967 431.752C113.475 433.61 111.13 435.68 108.955 437.94C108.785 438.112 108.614 438.288 108.448 438.465C103.263 443.969 99.0882 450.444 96.1363 457.561C94.9641 460.394 93.9972 463.317 93.2441 466.306C92.2042 470.433 91.387 474.995 89.1845 478.417C88.9585 478.777 88.7116 479.121 88.4454 479.448L67.6244 480.156C67.5763 480.133 67.5282 480.114 67.4799 480.091L66.6498 480.159C66.6785 480.002 66.7114 479.84 66.74 479.683C66.7563 479.592 66.7772 479.501 66.7935 479.41C66.8058 479.349 66.8184 479.288 66.8262 479.232C66.8302 479.212 66.8345 479.192 66.8387 479.176C66.8465 479.121 66.8593 479.07 66.8674 479.019C67.049 478.112 67.237 477.205 67.4314 476.298C67.4312 476.293 67.4313 476.293 67.4357 476.287C68.8542 469.357 71.0444 462.63 73.9604 456.246C74.0499 456.057 74.1389 455.863 74.2379 455.673C75.5921 452.845 77.1624 450.139 78.9331 447.582C79.907 446.185 80.9471 444.841 82.0493 443.555C84.9034 440.239 88.2326 437.418 91.9148 435.197C99.2558 430.77 107.853 428.878 115.911 431.155C116.117 431.214 116.319 431.272 116.525 431.336Z" fill="#F0F0F0"/>
<path d="M116.487 431.617C106.185 434.149 96.8986 440.052 89.9471 448.488C88.4201 450.276 87.169 452.307 86.2397 454.507C85.3999 456.682 85.1256 459.054 85.4452 461.379C85.702 463.552 86.2026 465.744 85.9558 467.946C85.8136 469.071 85.4483 470.152 84.8839 471.117C84.3195 472.082 83.5686 472.91 82.6806 473.547C80.5069 475.194 77.9038 475.916 75.3349 476.529C72.4826 477.209 69.5098 477.868 67.1721 479.846C66.8889 480.086 66.554 479.607 66.8368 479.368C70.9039 475.925 76.5095 476.428 80.9977 473.942C83.092 472.783 84.8687 470.948 85.3192 468.411C85.7132 466.192 85.1988 463.931 84.9208 461.733C84.5776 459.47 84.7631 457.153 85.4611 454.983C86.2815 452.74 87.4567 450.661 88.9362 448.835C92.205 444.668 96.0726 441.071 100.397 438.175C105.316 434.842 110.737 432.423 116.425 431.024C116.778 430.938 116.837 431.531 116.487 431.617V431.617Z" fill="white"/>
<path d="M92.0344 445.632C90.8555 444.206 90.1941 442.382 90.1683 440.487C90.1425 438.592 90.754 436.749 91.8935 435.287C92.1251 434.992 92.5691 435.359 92.3372 435.654C91.2736 437.013 90.7042 438.73 90.7316 440.495C90.759 442.26 91.3816 443.956 92.4868 445.277C92.7267 445.565 92.2729 445.918 92.0344 445.632V445.632Z" fill="white"/>
<path d="M85.1778 460.295C88.8278 460.588 92.4481 459.414 95.3168 457.007C95.6008 456.769 95.9359 457.248 95.6522 457.486C92.6626 459.985 88.8927 461.198 85.095 460.884C84.7331 460.854 84.8178 460.265 85.1778 460.295V460.295Z" fill="white"/>
<path d="M105.435 435.622C105.783 436.274 106.278 436.825 106.876 437.225C107.475 437.625 108.158 437.862 108.864 437.913C109.226 437.939 109.141 438.528 108.781 438.503C108.001 438.442 107.247 438.18 106.585 437.74C105.923 437.299 105.373 436.694 104.983 435.977C104.941 435.913 104.923 435.834 104.934 435.756C104.945 435.679 104.983 435.609 105.041 435.56C105.101 435.513 105.177 435.494 105.25 435.505C105.324 435.517 105.391 435.559 105.435 435.622H105.435Z" fill="white"/>
<path d="M399.032 440.356C397.863 426.89 390.41 413.407 378.456 408.631C382.804 422.599 382.343 437.744 377.156 451.387C375.137 456.641 372.375 462.262 373.96 467.68C374.945 471.051 377.527 473.692 380.451 475.388C383.375 477.085 386.65 477.957 389.885 478.813L390.509 479.396C396.056 467.213 400.201 453.823 399.032 440.356Z" fill="#F0F0F0"/>
<path d="M378.329 408.881C385.114 417.467 389.171 428.097 389.922 439.262C390.124 441.663 389.968 444.082 389.458 446.431C388.892 448.702 387.761 450.772 386.184 452.424C384.742 453.996 383.095 455.427 382.04 457.342C381.513 458.331 381.19 459.427 381.092 460.557C380.994 461.687 381.122 462.827 381.469 463.901C382.267 466.601 383.935 468.837 385.638 470.963C387.528 473.323 389.527 475.744 390.268 478.813C390.358 479.185 390.898 479.016 390.808 478.645C389.519 473.304 384.757 470.134 382.588 465.289C381.575 463.029 381.2 460.432 382.284 458.119C383.232 456.096 384.928 454.619 386.401 453.041C387.962 451.453 389.132 449.484 389.809 447.307C390.43 444.993 390.674 442.585 390.532 440.184C390.292 434.774 389.25 429.437 387.445 424.37C385.414 418.574 382.461 413.189 378.715 408.447C378.483 408.153 378.098 408.589 378.329 408.881L378.329 408.881Z" fill="white"/>
<path d="M389.88 435.652C391.633 435.264 393.198 434.23 394.297 432.733C395.396 431.237 395.956 429.375 395.878 427.482C395.874 427.405 395.842 427.332 395.788 427.279C395.735 427.227 395.664 427.198 395.591 427.199C395.518 427.201 395.448 427.232 395.397 427.287C395.345 427.342 395.316 427.415 395.314 427.493C395.39 429.256 394.868 430.989 393.843 432.381C392.817 433.772 391.355 434.73 389.721 435.081C389.366 435.157 389.527 435.728 389.88 435.652Z" fill="white"/>
<path d="M387.014 451.729C383.933 449.637 381.71 446.393 380.788 442.643C380.697 442.272 380.157 442.441 380.248 442.812C381.214 446.712 383.534 450.083 386.744 452.252C387.05 452.459 387.318 451.934 387.014 451.729H387.014Z" fill="white"/>
<path d="M384.874 419.12C384.226 419.42 383.517 419.544 382.812 419.482C382.106 419.42 381.427 419.174 380.834 418.765C380.53 418.555 380.263 419.08 380.564 419.289C381.221 419.737 381.972 420.008 382.752 420.079C383.531 420.149 384.314 420.016 385.034 419.692C385.104 419.668 385.163 419.616 385.198 419.547C385.233 419.478 385.243 419.398 385.224 419.322C385.203 419.246 385.154 419.183 385.088 419.145C385.023 419.107 384.946 419.098 384.874 419.12H384.874Z" fill="white"/>
<path d="M340.889 431.336C341.075 431.473 341.261 431.61 341.447 431.752C343.938 433.61 346.283 435.68 348.458 437.94C348.629 438.112 348.8 438.288 348.965 438.465C354.151 443.969 358.325 450.444 361.277 457.561C362.45 460.394 363.416 463.317 364.169 466.306C365.209 470.433 366.027 474.995 368.229 478.417C368.455 478.777 368.702 479.121 368.968 479.448L389.789 480.156C389.837 480.133 389.885 480.114 389.934 480.091L390.764 480.159C390.735 480.002 390.702 479.84 390.674 479.683C390.657 479.592 390.636 479.501 390.62 479.41C390.608 479.349 390.595 479.288 390.587 479.232C390.583 479.212 390.579 479.192 390.575 479.176C390.567 479.121 390.554 479.07 390.546 479.019C390.365 478.112 390.177 477.205 389.982 476.298C389.982 476.293 389.982 476.293 389.978 476.287C388.559 469.357 386.369 462.63 383.453 456.246C383.364 456.057 383.275 455.863 383.176 455.673C381.822 452.845 380.251 450.139 378.48 447.582C377.507 446.185 376.467 444.841 375.364 443.555C372.51 440.239 369.181 437.418 365.499 435.197C358.158 430.77 349.561 428.878 341.503 431.155C341.297 431.214 341.095 431.272 340.889 431.336Z" fill="#F0F0F0"/>
<path d="M340.927 431.617C351.229 434.149 360.515 440.052 367.466 448.488C368.993 450.276 370.245 452.307 371.174 454.507C372.014 456.682 372.288 459.054 371.968 461.379C371.712 463.552 371.211 465.744 371.458 467.946C371.6 469.071 371.965 470.152 372.53 471.117C373.094 472.082 373.845 472.91 374.733 473.547C376.907 475.194 379.51 475.916 382.079 476.529C384.931 477.209 387.904 477.868 390.241 479.846C390.525 480.086 390.86 479.607 390.577 479.368C386.51 475.925 380.904 476.428 376.416 473.942C374.322 472.783 372.545 470.948 372.094 468.411C371.7 466.192 372.215 463.931 372.493 461.733C372.836 459.47 372.65 457.153 371.952 454.983C371.132 452.74 369.957 450.661 368.477 448.835C365.208 444.668 361.341 441.071 357.016 438.175C352.098 434.842 346.677 432.423 340.988 431.024C340.636 430.938 340.577 431.531 340.927 431.617V431.617Z" fill="white"/>
<path d="M365.379 445.632C366.558 444.206 367.22 442.382 367.245 440.487C367.271 438.592 366.66 436.749 365.52 435.287C365.289 434.992 364.845 435.359 365.076 435.654C366.14 437.013 366.709 438.73 366.682 440.495C366.655 442.26 366.032 443.956 364.927 445.277C364.687 445.565 365.141 445.918 365.379 445.632V445.632Z" fill="white"/>
<path d="M372.236 460.295C368.586 460.588 364.965 459.414 362.097 457.007C361.813 456.769 361.478 457.248 361.761 457.486C364.751 459.985 368.521 461.198 372.319 460.884C372.681 460.854 372.596 460.265 372.236 460.295V460.295Z" fill="white"/>
<path d="M351.978 435.622C351.631 436.274 351.136 436.825 350.537 437.225C349.939 437.625 349.256 437.862 348.55 437.913C348.188 437.939 348.273 438.528 348.633 438.503C349.412 438.442 350.166 438.18 350.828 437.74C351.49 437.299 352.041 436.694 352.431 435.977C352.473 435.913 352.49 435.834 352.479 435.756C352.468 435.679 352.43 435.609 352.372 435.56C352.312 435.513 352.237 435.494 352.163 435.505C352.089 435.517 352.023 435.559 351.978 435.622H351.978Z" fill="white"/>
<path d="M543 481.235C543 481.438 542.923 481.632 542.788 481.775C542.652 481.919 542.469 482 542.277 482H0.72329C0.531526 482 0.347615 481.919 0.212018 481.776C0.0764207 481.632 0.000244141 481.438 0.000244141 481.235C0.000244141 481.032 0.0764207 480.837 0.212018 480.694C0.347615 480.55 0.531526 480.47 0.72329 480.47H542.277C542.469 480.47 542.652 480.551 542.788 480.694C542.923 480.838 543 481.032 543 481.235Z" fill="#3F3D56"/>
<path d="M348.83 185.204C350.34 185.204 351.564 183.909 351.564 182.31C351.564 180.712 350.34 179.416 348.83 179.416C347.32 179.416 346.096 180.712 346.096 182.31C346.096 183.909 347.32 185.204 348.83 185.204Z" fill="#3F3D56"/>
<path d="M314.593 204.6L351.454 180.09C351.787 179.868 352.16 179.721 352.549 179.655C352.938 179.59 353.335 179.609 353.717 179.711C354.099 179.813 354.457 179.996 354.77 180.248C355.084 180.501 355.345 180.818 355.539 181.181C355.734 181.543 355.856 181.944 355.9 182.358C355.944 182.772 355.908 183.192 355.795 183.591C355.681 183.99 355.492 184.361 355.24 184.68C354.987 185 354.676 185.262 354.325 185.451L315.518 206.328C315.302 206.444 315.053 206.468 314.822 206.394C314.59 206.32 314.395 206.155 314.275 205.932C314.156 205.71 314.123 205.447 314.182 205.199C314.241 204.951 314.388 204.737 314.593 204.6V204.6Z" fill="#E4E4E4"/>
<path d="M240.642 257.377C240.351 256.92 240.2 256.38 240.207 255.83C240.215 255.279 240.381 254.744 240.684 254.296C241.307 253.412 242.138 252.715 243.093 252.274C245.066 251.211 247.19 250.501 249.381 250.171C251.046 249.921 252.864 249.841 254.155 248.701C255.438 247.568 256.154 245.451 257.816 245.274C259.423 245.103 260.659 246.965 262.27 247.081C264.257 247.223 265.557 244.763 267.49 244.258C268.784 243.92 270.115 244.516 271.328 245.099L278.612 248.596L282.345 250.389C283.649 251.015 285.119 251.858 285.366 253.351C285.704 255.402 283.548 256.85 281.705 257.578C268.544 262.719 254.082 262.72 240.92 257.583" fill="white"/>
<path d="M251.614 295.169C304.466 295.169 347.311 288.691 347.311 280.7C347.311 272.709 304.466 266.231 251.614 266.231C198.762 266.231 155.917 272.709 155.917 280.7C155.917 288.691 198.762 295.169 251.614 295.169Z" fill="#3F3D56"/>
<path d="M445.742 370.408H380.121C377.101 370.408 374.653 372.999 374.653 376.196C374.653 379.392 377.101 381.983 380.121 381.983H445.742C448.762 381.983 451.211 379.392 451.211 376.196C451.211 372.999 448.762 370.408 445.742 370.408Z" fill="#3F3D56"/>
<path d="M477.544 267.221L455.871 376.189L461.516 404.079L472.173 456.715V480.373C472.174 480.405 472.172 480.438 472.167 480.47C472.163 480.992 472.073 481.51 471.899 482H463.333C463.159 481.51 463.069 480.992 463.065 480.47C463.06 480.438 463.058 480.405 463.059 480.373V457.731L453.386 409.957L451.429 400.311L447.644 381.617L446.551 376.202V376.196L447.632 370.768L448.464 366.582L468.625 265.241C468.747 264.62 468.984 264.031 469.321 263.508C469.659 262.984 470.09 262.537 470.592 262.19C471.093 261.843 471.654 261.604 472.242 261.487C472.83 261.369 473.435 261.376 474.021 261.506C474.607 261.636 475.163 261.887 475.657 262.245C476.152 262.603 476.574 263.06 476.902 263.591C477.229 264.122 477.454 264.715 477.564 265.338C477.674 265.961 477.668 266.601 477.544 267.221L477.544 267.221Z" fill="#3F3D56"/>
<path d="M384.678 376.196V480.373C384.679 480.405 384.677 480.438 384.673 480.469C384.669 480.992 384.578 481.51 384.405 482H375.838C375.665 481.51 375.574 480.992 375.57 480.469C375.565 480.438 375.563 480.405 375.564 480.373V376.196C375.564 374.917 376.045 373.69 376.899 372.785C377.754 371.881 378.913 371.373 380.121 371.373C381.33 371.373 382.489 371.881 383.344 372.785C384.198 373.69 384.678 374.917 384.678 376.196Z" fill="#3F3D56"/>
<path d="M391.058 358.833H434.805C439.156 358.833 443.329 360.662 446.406 363.918C449.482 367.175 451.211 371.591 451.211 376.196H374.653C374.653 371.591 376.381 367.175 379.458 363.918C382.535 360.662 386.707 358.833 391.058 358.833Z" fill="#3F3D56"/>
<path d="M456.679 409.957H380.121C378.913 409.957 377.754 409.449 376.899 408.544C376.045 407.64 375.564 406.413 375.564 405.134C375.564 403.855 376.045 402.628 376.899 401.723C377.754 400.819 378.913 400.311 380.121 400.311H456.679C457.888 400.311 459.047 400.819 459.901 401.723C460.756 402.628 461.236 403.855 461.236 405.134C461.236 406.413 460.756 407.64 459.901 408.544C459.047 409.449 457.888 409.957 456.679 409.957Z" fill="#3F3D56"/>
<path d="M100.57 382.159H177.791C180.811 382.159 183.259 379.568 183.259 376.371V374.617C183.259 371.421 180.811 368.83 177.791 368.83H100.57C97.5502 368.83 95.1019 371.421 95.1019 374.617V376.371C95.1019 379.568 97.5502 382.159 100.57 382.159Z" fill="#3F3D56"/>
<path d="M99.775 375.572L98.3774 381.668L93.2493 403.996L91.0378 413.642L80.7691 458.386V477.801C80.7718 478.751 80.5052 479.681 80.0037 480.469C79.6094 481.107 79.0732 481.633 78.4423 482H73.9823C73.3513 481.633 72.8152 481.107 72.4209 480.469C71.9193 479.681 71.6525 478.751 71.6551 477.801V457.229L83.066 407.52L90.4302 375.418L65.4578 249.858C65.3342 249.239 65.3272 248.599 65.4373 247.977C65.5473 247.354 65.7722 246.76 66.0992 246.23C66.4261 245.699 66.8486 245.242 67.3425 244.885C67.8365 244.527 68.3922 244.276 68.9778 244.146C69.5635 244.016 70.1677 244.009 70.7558 244.126C71.3439 244.243 71.9044 244.482 72.4053 244.829C72.9062 245.175 73.3377 245.623 73.675 246.146C74.0123 246.669 74.2489 247.258 74.3712 247.878L97.4541 363.907L98.5174 369.257L99.7566 375.495L99.775 375.572Z" fill="#3F3D56"/>
<path d="M181.521 375.495V477.801C181.524 478.751 181.257 479.681 180.756 480.469C180.361 481.107 179.825 481.633 179.194 482H174.728C174.1 481.631 173.567 481.105 173.173 480.469C172.671 479.681 172.405 478.751 172.407 477.801V375.495C172.407 374.216 172.888 372.989 173.742 372.084C174.597 371.18 175.756 370.672 176.964 370.672C178.173 370.672 179.332 371.18 180.187 372.084C181.041 372.989 181.521 374.216 181.521 375.495Z" fill="#3F3D56"/>
<path d="M183.259 375.494H95.102V372.863C95.102 370.583 95.5263 368.326 96.3508 366.219C97.1752 364.112 98.3836 362.198 99.907 360.586C101.43 358.974 103.239 357.695 105.229 356.822C107.22 355.95 109.353 355.501 111.507 355.501H166.854C171.205 355.501 175.378 357.33 178.454 360.586C181.531 363.842 183.259 368.259 183.259 372.863V375.494H183.259Z" fill="#3F3D56"/>
<path d="M176.962 413.64H88.805C87.5965 413.64 86.4374 413.132 85.5828 412.227C84.7282 411.323 84.248 410.096 84.248 408.817C84.248 407.538 84.7282 406.311 85.5828 405.406C86.4374 404.502 87.5965 403.994 88.805 403.994H176.962C178.171 403.994 179.33 404.502 180.185 405.406C181.039 406.311 181.519 407.538 181.519 408.817C181.519 410.096 181.039 411.323 180.185 412.227C179.33 413.132 178.171 413.64 176.962 413.64Z" fill="#3F3D56"/>
<path d="M290.258 455.712L280.681 450.864L293.837 408.493L307.974 415.647L290.258 455.712Z" fill="#9E616A"/>
<path d="M355.168 451.874L344.869 454.563L329.947 412.862L345.148 408.893L355.168 451.874Z" fill="#9E616A"/>
<path d="M315.694 271.547C317.06 273.895 319.239 275.585 321.766 276.256C324.294 276.927 326.968 276.526 329.22 275.139C329.673 274.849 330.102 274.519 330.504 274.154L360.784 292.546L359.469 273.666L330.916 259.096C329.362 257.444 327.334 256.385 325.151 256.084C322.967 255.783 320.751 256.257 318.849 257.432C317.754 258.128 316.802 259.049 316.048 260.14C315.295 261.231 314.755 262.471 314.461 263.786C314.167 265.101 314.125 266.466 314.336 267.798C314.548 269.131 315.01 270.406 315.694 271.547Z" fill="#9E616A"/>
<path d="M347.766 285.62L353.118 289.073L377.157 304.588C378.736 305.633 380.495 306.339 382.332 306.665C384.169 306.991 386.048 306.931 387.863 306.487C389.678 306.044 391.393 305.226 392.909 304.081C394.425 302.936 395.713 301.486 396.699 299.814C398.479 296.71 399.109 293.018 398.467 289.452L387.782 232.957C387.388 230.739 386.545 228.637 385.313 226.796C384.08 224.954 382.486 223.416 380.64 222.287C378.794 221.157 376.739 220.463 374.616 220.252C372.493 220.04 370.352 220.316 368.339 221.061C364.956 222.319 362.153 224.894 360.5 228.263C358.847 231.631 358.468 235.539 359.442 239.192L370.614 279.286L353.489 270.836L347.766 285.62Z" fill="#E6E6E6"/>
<path d="M335.11 440.188L318.63 405.205L318.632 405.125L320.259 340.962C320.279 340.392 320.323 339.818 320.389 339.254C320.676 336.682 321.444 334.195 322.649 331.94C323.854 329.685 325.471 327.706 327.405 326.119C329.258 324.585 331.381 323.456 333.65 322.799C335.92 322.143 338.29 321.971 340.623 322.293L387.748 328.748L389.383 321.675L389.687 321.558L434.84 304.043L435.101 304.492C441.014 314.676 445.148 335.018 446.274 341.01L446.291 341.097C446.314 341.223 446.329 341.299 446.333 341.322C448.658 351.547 439.053 368.486 429.485 371.032C409.331 376.469 391.306 372.228 370.435 367.316C362.951 365.554 355.217 363.734 346.697 362.16L346.95 367.467C347.158 371.551 347.959 375.578 349.327 379.404C350.846 384.112 352.046 387.832 349.509 395.586L348.282 399.338C348.918 401.2 349.137 403.194 348.922 405.161C348.706 407.128 348.062 409.016 347.039 410.674L346.793 411.073L357.661 440.181L335.11 440.188Z" fill="#2F2E41"/>
<path d="M308.032 424.717L288.379 422.784L295.342 399.217C296.779 383.83 300.399 368.759 306.081 354.513L315.578 330.693C315.6 330.163 315.642 329.629 315.703 329.106C315.99 326.534 316.759 324.047 317.963 321.792C319.168 319.537 320.785 317.558 322.72 315.971C324.573 314.438 326.696 313.309 328.965 312.653C331.234 311.996 333.604 311.824 335.937 312.146L382.993 318.591L385.042 300.385L430.208 293.988L430.415 294.344C438.309 307.939 443.321 318.582 446.188 327.838C446.331 328.31 446.459 328.791 446.568 329.271C448.909 339.566 443.066 350.003 433.545 352.537C409.281 359.084 380.102 358.902 341.739 351.962L323.173 398.725C321.398 403.192 319.201 407.457 316.615 411.456L308.032 424.717Z" fill="#2F2E41"/>
<path d="M376.584 188.638C389.157 188.638 399.349 177.61 399.349 164.006C399.349 150.403 389.157 139.375 376.584 139.375C364.011 139.375 353.819 150.403 353.819 164.006C353.819 177.61 364.011 188.638 376.584 188.638Z" fill="#9E616A"/>
<path d="M383.157 319.451L379.891 307.066L379.088 300.957L374.393 301.122L365.179 278.613L361.6 272.677C360.87 271.864 360.209 271.082 359.616 270.331C355.887 265.87 352.897 260.774 350.772 255.259C349.284 251.296 348.409 247.105 348.184 242.847C347.516 230.27 352.525 216.964 363.499 202.17C363.319 201.647 363.199 201.102 363.141 200.548C362.945 198.751 363.427 196.945 364.483 195.522C365.539 194.099 367.083 193.175 368.779 192.951L379.363 191.693C380.186 191.594 381.019 191.67 381.814 191.915C382.609 192.161 383.351 192.571 383.994 193.122C384.667 193.693 385.225 194.399 385.637 195.2C386.049 196.001 386.306 196.881 386.393 197.788C386.535 199.192 386.274 200.608 385.645 201.852C391.04 202.577 396.122 204.934 400.283 208.639C404.445 212.345 407.507 217.243 409.104 222.744C415.437 235.257 420.485 248.453 424.161 262.104C424.886 264.778 424.563 267.533 424.251 270.198C423.963 272.659 423.665 275.204 424.166 277.74C424.676 280.32 425.902 282.908 427.2 285.648C428.687 288.786 430.225 292.031 430.641 295.339L430.67 295.571L383.157 319.451Z" fill="#E4E4E4"/>
<path opacity="0.2" d="M351.054 255.137C353.169 260.62 356.143 265.687 359.849 270.124C360.484 270.927 361.155 271.715 361.856 272.504L365.457 278.485C378.732 267.954 389.488 226.488 389.488 226.488L374.51 223.404L351.054 255.137Z" fill="black"/>
<path d="M341.986 190.939C343.298 193.323 343.678 196.155 343.047 198.832C342.416 201.509 340.823 203.82 338.606 205.272C338.152 205.56 337.675 205.808 337.181 206.012L338.242 242.947L323.129 232.878L324.439 199.348C323.796 197.117 323.869 194.723 324.647 192.54C325.425 190.357 326.863 188.509 328.738 187.282C329.83 186.583 331.043 186.122 332.306 185.928C333.569 185.734 334.856 185.809 336.091 186.15C337.326 186.491 338.484 187.09 339.497 187.913C340.509 188.735 341.356 189.764 341.986 190.939Z" fill="#9E616A"/>
<path d="M339.57 229.005L322.951 231.506L323.666 267.931C323.707 270.529 324.375 273.073 325.608 275.321C326.84 277.569 328.595 279.446 330.705 280.774C333.284 282.38 336.286 283.055 339.258 282.698C342.231 282.341 345.013 280.97 347.186 278.794L386.422 238.851C389.183 236.08 390.835 232.294 391.039 228.272C391.243 224.251 389.983 220.299 387.518 217.231C386.299 215.703 384.802 214.45 383.116 213.547C381.43 212.643 379.59 212.107 377.705 211.97C375.819 211.833 373.927 212.099 372.141 212.751C370.354 213.403 368.71 214.429 367.305 215.766C366.917 216.133 366.548 216.522 366.2 216.931L340.292 248.475L339.57 229.005Z" fill="#E6E6E6"/>
<path d="M200.571 466.591L212.367 466.59L217.979 418.434L200.569 418.435L200.571 466.591Z" fill="#FFB6B6"/>
<path d="M133.709 189.352C146.712 189.352 157.253 178.196 157.253 164.435C157.253 150.673 146.712 139.517 133.709 139.517C120.706 139.517 110.166 150.673 110.166 164.435C110.166 178.196 120.706 189.352 133.709 189.352Z" fill="#FFB6B6"/>
<path d="M216.217 451.756H199.513L195.254 445.715L194.101 440.023L193.109 439.007C191.763 437.639 190.893 435.831 190.64 433.875C190.386 431.918 190.765 429.929 191.713 428.228L179.607 368.448C176.436 368.153 140.678 364.769 115.822 360.113C109.461 358.922 104.494 355.649 101.06 350.386C92.6218 337.453 96.2364 316.528 96.2739 316.318L96.3156 316.085L96.5385 316.058L154.598 309.161L154.676 309.2C156.602 310.166 201.948 332.95 209.358 340.793C212.704 344.334 220.17 365.376 221.841 387.746C222.14 391.753 221.063 395.834 220.021 399.781C219.046 403.474 218.038 407.293 218.237 410.903C218.544 416.473 218.836 422.316 219.103 428.269C219.145 429.218 219.821 430.199 220.474 431.149C221.156 432.141 221.8 433.077 221.841 434.058C222.238 443.565 216.367 451.554 216.308 451.634L216.217 451.756Z" fill="#2F2E41"/>
<path d="M220.021 230.803C218.756 230.437 217.431 230.369 216.138 230.604C214.846 230.839 213.618 231.371 212.541 232.162C211.464 232.953 210.564 233.985 209.904 235.184C209.245 236.384 208.842 237.721 208.723 239.103L189.161 245.574L189.977 259.115L217.481 249.566C219.688 249.623 221.838 248.82 223.523 247.311C225.209 245.802 226.312 243.691 226.625 241.378C226.938 239.066 226.439 236.712 225.221 234.763C224.004 232.814 222.154 231.405 220.021 230.803V230.803Z" fill="#FFB6B6"/>
<path d="M207.257 253.211L192.637 259.067L192.263 259.835C191.367 261.675 189.816 263.063 187.953 263.694C186.09 264.324 184.066 264.146 182.327 263.197L149.465 276.361C149.465 276.361 134.79 260.818 124.342 246.946L127.903 223.765C128.728 218.386 130.48 213.214 133.074 208.507C154.502 213.48 166.802 245.183 166.802 245.183L205.42 237.384L207.257 253.211Z" fill="white"/>
<path d="M130.363 188.021C124.469 189.705 117.971 187.465 113.371 183.217C108.772 178.968 105.894 172.947 104.236 166.728C103.022 162.173 102.446 157.118 104.363 152.842C106.279 148.566 111.436 145.681 115.414 147.841C112.96 144.815 114.186 139.809 117.052 137.22C119.919 134.631 123.855 133.889 127.604 133.483C133.044 132.894 138.664 132.828 143.841 134.694C149.018 136.559 153.722 140.638 155.342 146.166C156.997 146.981 158.861 147.193 160.641 146.767C162.422 146.342 164.019 145.303 165.182 143.815C165.482 145.525 165.241 147.292 164.497 148.842C163.752 150.393 162.546 151.64 161.064 152.392L168.996 149.67C170.361 152.726 167.97 156.509 164.913 157.487C161.857 158.466 158.557 157.396 155.656 155.982C152.756 154.568 149.944 152.781 146.794 152.229C143.643 151.678 139.942 152.749 138.484 155.757C137.721 157.332 137.681 159.177 137.238 160.884C136.795 162.591 135.672 164.361 134.005 164.501C132.951 164.589 131.92 163.995 130.869 164.116C129.567 164.267 128.57 165.516 128.223 166.853C127.961 168.216 127.958 169.62 128.214 170.984L130.229 187.284" fill="#2F2E41"/>
<path d="M101.195 353.364C101.191 353.364 101.186 353.363 101.182 353.362L100.996 353.328L100.942 353.137C100.265 350.727 99.4038 348.261 98.5708 345.875C97.3441 342.572 96.3082 339.192 95.469 335.756C94.8086 332.47 94.3507 329.143 94.0982 325.794C93.8658 323.363 93.6255 320.849 93.2169 318.375C93.0355 317.276 93.723 316.235 94.3879 315.229C95.0044 314.296 95.5868 313.415 95.4646 312.581C95.3396 311.729 94.4463 310.792 93.5825 309.887C92.6355 308.894 91.6564 307.868 91.5177 306.788C89.6305 292.048 88.752 277.184 88.8893 262.311C89.0843 241.732 89.9631 227.705 91.5009 220.62C95.6361 201.567 114.741 198.091 117.731 197.661C118.05 196.763 118.54 195.945 119.17 195.256C119.8 194.567 120.558 194.023 121.396 193.657C122.233 193.291 123.133 193.112 124.039 193.13C124.945 193.149 125.838 193.364 126.662 193.763L140.236 200.34C142.99 201.679 145.454 203.603 147.475 205.992C149.496 208.381 151.032 211.185 151.986 214.229L154.002 220.735L155.012 264.412L149.415 295.169L160.352 312.532C102.063 346.402 101.383 353.364 101.195 353.364Z" fill="white"/>
<path d="M194.224 461.738L198.059 461.738L213.032 455.293L221.058 461.737H221.059C225.594 461.737 229.944 463.644 233.151 467.039C236.358 470.433 238.159 475.036 238.16 479.836V480.424L194.224 480.426L194.224 461.738Z" fill="#2F2E41"/>
<path d="M224.919 261.971C223.788 261.269 222.525 260.837 221.22 260.707C219.915 260.577 218.598 260.751 217.363 261.218C216.128 261.684 215.005 262.432 214.073 263.407C213.14 264.383 212.421 265.563 211.966 266.865L191.487 267.71L188.728 277.806L217.842 279.383C219.959 280.047 222.232 279.866 224.231 278.875C226.229 277.883 227.815 276.15 228.688 274.004C229.56 271.858 229.658 269.448 228.963 267.23C228.269 265.012 226.829 263.141 224.919 261.971Z" fill="#FFB6B6"/>
<path d="M208.096 280.472L187.06 280.195L184.397 280.157L141.597 279.586C141.597 279.586 129.974 267.85 119.854 255.768L121.272 244.909C122.656 234.252 127.651 224.49 135.327 217.44C149.822 227.69 158.228 247.981 158.228 247.981L172.322 254.656C182.241 255.125 191.907 258.121 200.498 263.389L205.133 266.231L208.096 280.472Z" fill="white"/>
<path d="M362.683 472.414L355.683 474.243L352.803 467.575L351.234 475.405L332.669 480.254C331.779 480.486 330.843 480.412 329.996 480.041C329.149 479.67 328.436 479.022 327.962 478.192C327.487 477.362 327.276 476.393 327.358 475.427C327.441 474.461 327.813 473.548 328.421 472.822L340.719 458.113L339.07 451.042L354.893 447.954L362.683 472.414Z" fill="#2F2E41"/>
<path d="M288.53 474.701L281.855 471.817L283.236 464.632L277.612 469.984L259.909 462.336C259.06 461.97 258.344 461.325 257.866 460.498C257.388 459.67 257.172 458.703 257.25 457.736C257.328 456.77 257.696 455.855 258.301 455.125C258.905 454.396 259.713 453.89 260.609 453.681L278.731 449.455L281.332 442.712L295.84 450.075L288.53 474.701Z" fill="#2F2E41"/>
<path d="M265.285 278.128H259.817C253.937 278.121 248.3 275.645 244.142 271.245C239.985 266.845 237.646 260.879 237.639 254.656V254.334H287.463V254.656C287.456 260.879 285.117 266.845 280.96 271.245C276.802 275.645 271.165 278.121 265.285 278.128Z" fill="#E4E4E4"/>
<path d="M259.817 245.974C259.817 247.572 257.083 248.868 257.083 248.868C257.083 248.868 254.348 247.572 254.348 245.974C254.348 244.376 257.083 243.08 257.083 243.08C257.083 243.08 259.817 244.376 259.817 245.974Z" fill="#3F3D56"/>
<path d="M276.222 245.974C276.222 247.572 273.488 248.868 273.488 248.868C273.488 248.868 270.754 247.572 270.754 245.974C270.754 244.376 273.488 243.08 273.488 243.08C273.488 243.08 276.222 244.376 276.222 245.974Z" fill="#3F3D56"/>
<path d="M265.285 251.762C265.285 253.36 262.551 254.656 262.551 254.656C262.551 254.656 259.817 253.36 259.817 251.762C259.817 250.164 262.551 248.868 262.551 248.868C262.551 248.868 265.285 250.164 265.285 251.762Z" fill="#3F3D56"/>
<path d="M246.146 239.865C247.656 239.865 248.88 238.569 248.88 236.971C248.88 235.373 247.656 234.077 246.146 234.077C244.636 234.077 243.412 235.373 243.412 236.971C243.412 238.569 244.636 239.865 246.146 239.865Z" fill="#3F3D56"/>
<path d="M206.381 230.752L249.504 237.056C249.894 237.112 250.269 237.253 250.607 237.467C250.944 237.682 251.237 237.967 251.468 238.305C251.698 238.643 251.862 239.027 251.948 239.433C252.035 239.84 252.043 240.261 251.971 240.671C251.9 241.081 251.75 241.471 251.532 241.818C251.314 242.165 251.032 242.462 250.703 242.69C250.373 242.919 250.004 243.074 249.616 243.147C249.228 243.22 248.831 243.209 248.447 243.115L206.04 232.705C205.805 232.648 205.599 232.496 205.467 232.282C205.334 232.068 205.285 231.808 205.329 231.556C205.373 231.305 205.506 231.081 205.702 230.931C205.898 230.781 206.141 230.717 206.381 230.752Z" fill="#E4E4E4"/>
<path d="M258.783 86.9513V0H253.315V86.9513C245.843 87.6728 238.896 91.324 233.837 97.1881C228.779 103.052 225.973 110.706 225.973 118.646V127.328H245.112C245.112 130.398 246.264 133.342 248.315 135.513C250.366 137.684 253.148 138.903 256.049 138.903C258.949 138.903 261.731 137.684 263.782 135.513C265.833 133.342 266.986 130.398 266.986 127.328H286.125V118.646C286.124 110.706 283.319 103.052 278.26 97.1881C273.201 91.324 266.255 87.6728 258.783 86.9513Z" fill="#F0F0F0"/>
<path d="M329.189 65.2135V0H325.087V65.2135C319.484 65.7546 314.273 68.493 310.479 72.8911C306.685 77.2891 304.581 83.0293 304.581 88.9847V95.4958H318.935C318.935 97.7983 319.8 100.006 321.338 101.635C322.876 103.263 324.962 104.177 327.138 104.177C329.313 104.177 331.4 103.263 332.938 101.635C334.476 100.006 335.341 97.7983 335.341 95.4958H349.695V88.9847C349.694 83.0293 347.591 77.2891 343.797 72.8911C340.003 68.493 334.792 65.7546 329.189 65.2135Z" fill="#F0F0F0"/>
<path d="M190.656 65.2135V0H186.555V65.2135C180.951 65.7546 175.741 68.493 171.947 72.8911C168.153 77.2891 166.049 83.0293 166.048 88.9847V95.4958H180.403C180.403 97.7983 181.267 100.006 182.805 101.635C184.343 103.263 186.43 104.177 188.605 104.177C190.781 104.177 192.867 103.263 194.405 101.635C195.944 100.006 196.808 97.7983 196.808 95.4958H211.162V88.9847C211.162 83.0293 209.058 77.2891 205.264 72.8911C201.47 68.493 196.26 65.7546 190.656 65.2135Z" fill="#F0F0F0"/>
<path d="M437.501 153.324C433.632 148.548 431.792 142.211 428.699 136.788C425.605 131.365 420.222 126.511 414.535 127.773C410.615 128.643 407.585 132.304 406.051 136.386C404.517 140.468 404.23 144.969 403.961 149.379C404.056 140.317 398.415 131.531 390.644 128.639C382.873 125.748 373.573 128.973 368.69 136.254C366.559 134.164 363.777 132.973 360.873 132.909C357.968 132.844 355.142 133.91 352.93 135.904C348.562 140.035 347.595 147.899 350.807 153.169C354.02 158.439 360.976 160.402 366.081 157.48L367.886 159.237C366.87 162.997 368.84 167.439 372.151 168.854C374.836 170.002 378.627 169.811 379.632 172.794C380.335 174.878 379.022 177.102 377.626 178.703C376.23 180.305 374.572 181.958 374.405 184.174C374.151 187.518 377.416 189.86 380.384 190.566C387.54 192.267 395.48 188.759 399.604 182.076C399.684 181.947 399.77 181.818 399.863 181.688C402.177 178.557 403.864 174.958 404.82 171.113C405.775 167.268 405.98 163.257 405.422 159.326C405.19 157.781 405.424 156.632 406.43 156.266C410.78 154.685 422.966 158.003 426.654 161.003C430.342 164.002 433.296 167.972 436.848 171.165C440.401 174.358 444.928 176.821 449.439 175.952C453.051 175.255 456.125 172.479 458.192 169.131C460.259 165.783 461.449 161.88 462.514 158.001C454.525 162.886 443.592 160.841 437.501 153.324Z" fill="#2F2E41"/>
</g>
<defs>
<clipPath id="clip0_10_79">
<rect width="543" height="482" fill="white"/>
</clipPath>
</defs>
</svg>
