<svg id="Camada_1" data-name="Camada 1" xmlns="http://www.w3.org/2000/svg" xmlns:xlink="http://www.w3.org/1999/xlink" viewBox="0 0 2938.11 2938.11"><defs><style>.cls-1{fill:none;}.cls-2{fill:#485460;}.cls-3{fill:#1e272e;}.cls-4{clip-path:url(#clip-path);}.cls-5{clip-path:url(#clip-path-2);}.cls-6{fill:#3c40c6;}</style><clipPath id="clip-path"><rect class="cls-1" x="-3051.77" y="1865.45" width="835.37" height="907.58"/></clipPath><clipPath id="clip-path-2"><rect class="cls-1" x="-3287.42" y="157.32" width="1438.92" height="1497.11"/></clipPath><symbol id="dinner" data-name="dinner" viewBox="0 0 716.39 104.21"><path class="cls-2" d="M0,104.06V0H35.13Q56.4,0,68.78,6.38A48.14,48.14,0,0,1,88.47,25.14a52.19,52.19,0,0,1,7.31,27A51.11,51.11,0,0,1,80.26,88.92a50.43,50.43,0,0,1-17.68,11.26,53,53,0,0,1-10.81,3.1q-4.92.78-18.8.78ZM33.57,13.28H14.92v77.5H34q11.19,0,17.39-1.53a40.84,40.84,0,0,0,10.33-3.88,35.1,35.1,0,0,0,7.57-5.78q11-11.19,11-28.27,0-16.78-11.34-27.38a36.3,36.3,0,0,0-9.59-6.48A40.15,40.15,0,0,0,49.16,14.1,104,104,0,0,0,33.57,13.28Z"/><path class="cls-2" d="M150.14,0h14.92V104.21H150.14Z"/><path class="cls-2" d="M301.77,0H316V104.21H303.11L233.44,24v80.26h-14V0H231.5l70.27,80.94Z"/><path class="cls-2" d="M452.66,0h14.17V104.21H454L384.33,24v80.26h-14V0h12.08l70.27,80.94Z"/><path class="cls-2" d="M521.19,0h59.08V13.28H536.11V45.05h42.67V58.41H536.11V90.78h45.58v13.28h-60.5Z"/><path class="cls-2" d="M636.05,104.21V0h26.11Q678,0,687.26,7.83T696.55,29A27.19,27.19,0,0,1,692,44.76a27.23,27.23,0,0,1-13.06,9.92,46,46,0,0,1,9.77,9q4.77,5.67,13.43,19.77,5.45,8.88,8.73,13.35l5.52,7.46H698.63l-4.54-6.87c-.15-.25-.45-.67-.89-1.27L690.29,92l-4.62-7.61-5-8.14A81.25,81.25,0,0,0,672.21,66a32.4,32.4,0,0,0-6.94-5.47q-3.1-1.68-10.42-1.68H651v45.36Zm19.39-91.53H651v32.9h5.67q11.34,0,15.55-1.94a14.53,14.53,0,0,0,6.56-5.86,16.94,16.94,0,0,0,2.35-8.91A16,16,0,0,0,678.49,20a14,14,0,0,0-7.34-5.63Q666.41,12.69,655.44,12.68Z"/></symbol><symbol id="tech" data-name="tech" viewBox="0 0 709.04 173.83"><polygon class="cls-3" points="0 33.24 61.38 33.24 61.38 171.65 103.6 171.65 103.6 33.24 164.98 33.24 164.98 2.18 0 2.18 0 33.24"/><polygon class="cls-3" points="233.4 99.84 310.67 99.84 310.67 68.78 233.4 68.78 233.4 33.24 314.43 33.24 314.43 2.18 191.18 2.18 191.18 171.65 316.13 171.65 316.13 140.6 233.4 140.6 233.4 99.84"/><path class="cls-3" d="M445,138.65q-26.46,0-43.37-14.67T384.67,86.74q0-22.45,17.16-36.94t44.22-14.5q27.52,0,58.35,17.35V14.92Q479.29,0,443,0q-45.48,0-73.69,25.47t-28.2,62q0,36.53,26.74,61.44t71.88,24.93A140.23,140.23,0,0,0,506.34,157V120q-24,11.78-36.15,15.23A91.81,91.81,0,0,1,445,138.65Z"/><polygon class="cls-3" points="666.83 2.18 666.83 70.24 582.4 70.24 582.4 2.18 540.18 2.18 540.18 171.65 582.4 171.65 582.4 103.11 666.83 103.11 666.83 171.65 709.04 171.65 709.04 2.18 666.83 2.18"/></symbol></defs><g class="cls-4"><use width="716.39" height="104.21" transform="translate(-3051.77 1865.45) scale(8.72)" xlink:href="#dinner"/></g><g class="cls-5"><use width="709.04" height="173.83" transform="translate(-3287.42 157.32) scale(8.72)" xlink:href="#tech"/></g><path class="cls-3" d="M387,2773V1865.45H693.38q185.43,0,293.42,55.63t171.76,163.62q63.75,108,63.76,235.52a448.12,448.12,0,0,1-289.52,419q-51.4,20.19-94.33,27t-164,6.82Zm292.77-791.77H517.07v676H683.62q97.59,0,151.59-13.34t90.11-33.83a308.16,308.16,0,0,0,66-50.42q96.27-97.59,96.29-246.58,0-146.39-98.89-238.77a316.12,316.12,0,0,0-83.61-56.6q-47.17-22.11-89.45-29.28T679.72,1981.26Z"/><polygon class="cls-3" points="151.3 447.22 686.66 447.22 686.66 1654.43 1054.86 1654.43 1054.86 447.22 1590.22 447.22 1590.22 176.37 151.3 176.37 151.3 447.22"/><path class="cls-3" d="M1677.24,970.85l-72.11,175.33a101.88,101.88,0,1,1-71.34-29.34l71-172.55c-116.84-42.21-229.18-79.84-335.06-112.44l.09,164.21.19,364,319,131.22a101.87,101.87,0,1,1-29.34,71.33L1270,1443.45l.09,176.53.09,176.11a107.32,107.32,0,1,1,4,196.77c-1.31-.54-2.59-1.12-3.87-1.7l.41,789.63,411.06-414.72-80.94-33.29a101.87,101.87,0,1,1,29.34-71.33l110.33,45.38,347.39-350.49,182.49-184.11,256.73-259,115.6-116.63C2446,1293.73,2216.61,1187,1968.31,1084.82,1869.33,1044.11,1772,1006.05,1677.24,970.85Zm376.92,942.09a107.33,107.33,0,1,1-58.44-140.09A107.33,107.33,0,0,1,2054.16,1912.94Zm.61-565.82a107.33,107.33,0,1,1-140.09,58.44A107.34,107.34,0,0,1,2054.77,1347.12Z"/><path class="cls-6" d="M2057.47,868.05c-300.89-123.76-582.72-207.59-787.86-240.89l.1,204.69c105.88,32.6,218.22,70.23,335.06,112.44q36,13,72.47,26.56c94.74,35.2,192.09,73.26,291.07,114,248.3,102.13,477.66,208.91,674.41,311.77l144.09-145.38C2617.6,1130.54,2358.36,991.82,2057.47,868.05Z"/><path class="cls-6" d="M1973.12,1545.65a107.33,107.33,0,1,0-58.44-140.09A107.33,107.33,0,0,0,1973.12,1545.65Zm61.93-150.58a55.49,55.49,0,1,1-72.42,30.21A55.48,55.48,0,0,1,2035.05,1395.07Z"/><path class="cls-6" d="M1855.63,1831.28a107.33,107.33,0,1,0,140.09-58.43A107.33,107.33,0,0,0,1855.63,1831.28Zm150.58,61.94a55.49,55.49,0,1,1-30.21-72.43A55.48,55.48,0,0,1,2006.21,1893.22Z"/><path class="cls-6" d="M1414.27,1934.43a107.31,107.31,0,0,0-144.06-138.34l0,64.72a55.46,55.46,0,1,1,0,65.63l0,64.72c1.28.58,2.56,1.16,3.87,1.7A107.33,107.33,0,0,0,1414.27,1934.43Z"/><path class="cls-6" d="M1622.8,1657A101.87,101.87,0,1,0,1589,1491.26L1270,1360v.71l0,82.7,289.64,119.14A101.9,101.9,0,0,0,1622.8,1657ZM1674,1529.86A35.17,35.17,0,1,1,1628,1549,35.18,35.18,0,0,1,1674,1529.86Z"/><path class="cls-6" d="M1567.05,2167a101.87,101.87,0,1,0,33.79,165.75l80.94,33.29,58.73-59.24-110.33-45.38A101.9,101.9,0,0,0,1567.05,2167Zm-51.15,127.14a35.17,35.17,0,1,1,45.91-19.14A35.17,35.17,0,0,1,1515.9,2294.17Z"/><path class="cls-6" d="M1439.37,1180a101.87,101.87,0,1,0,165.76-33.79l72.11-175.33q-36.49-13.56-72.47-26.56l-71,172.55A101.9,101.9,0,0,0,1439.37,1180Zm108,5.24a35.17,35.17,0,1,1-45.9,19.15A35.17,35.17,0,0,1,1547.37,1185.21Z"/></svg>