<svg id="Camada_1" data-name="Camada 1" xmlns="http://www.w3.org/2000/svg" xmlns:xlink="http://www.w3.org/1999/xlink" viewBox="0 0 2938.11 2938.11"><defs><style>.cls-1{fill:none;}.cls-2{fill:#485460;}.cls-3{fill:#1e272e;}.cls-4{clip-path:url(#clip-path);}.cls-5{clip-path:url(#clip-path-2);}</style><clipPath id="clip-path"><rect class="cls-1" x="386.95" y="1865.45" width="835.37" height="907.58"/></clipPath><clipPath id="clip-path-2"><rect class="cls-1" x="151.3" y="157.32" width="1438.92" height="1497.11"/></clipPath><symbol id="dinner" data-name="dinner" viewBox="0 0 716.39 104.21"><path class="cls-2" d="M0,104.06V0H35.13Q56.4,0,68.78,6.38A48.14,48.14,0,0,1,88.47,25.14a52.19,52.19,0,0,1,7.31,27A51.11,51.11,0,0,1,80.26,88.92a50.43,50.43,0,0,1-17.68,11.26,53,53,0,0,1-10.81,3.1q-4.92.78-18.8.78ZM33.57,13.28H14.92v77.5H34q11.19,0,17.39-1.53a40.84,40.84,0,0,0,10.33-3.88,35.1,35.1,0,0,0,7.57-5.78q11-11.19,11-28.27,0-16.78-11.34-27.38a36.3,36.3,0,0,0-9.59-6.48A40.15,40.15,0,0,0,49.16,14.1,104,104,0,0,0,33.57,13.28Z"/><path class="cls-2" d="M150.14,0h14.92V104.21H150.14Z"/><path class="cls-2" d="M301.77,0H316V104.21H303.11L233.44,24v80.26h-14V0H231.5l70.27,80.94Z"/><path class="cls-2" d="M452.66,0h14.17V104.21H454L384.33,24v80.26h-14V0h12.08l70.27,80.94Z"/><path class="cls-2" d="M521.19,0h59.08V13.28H536.11V45.05h42.67V58.41H536.11V90.78h45.58v13.28h-60.5Z"/><path class="cls-2" d="M636.05,104.21V0h26.11Q678,0,687.26,7.83T696.55,29A27.19,27.19,0,0,1,692,44.76a27.23,27.23,0,0,1-13.06,9.92,46,46,0,0,1,9.77,9q4.77,5.67,13.43,19.77,5.45,8.88,8.73,13.35l5.52,7.46H698.63l-4.54-6.87c-.15-.25-.45-.67-.89-1.27L690.29,92l-4.62-7.61-5-8.14A81.25,81.25,0,0,0,672.21,66a32.4,32.4,0,0,0-6.94-5.47q-3.1-1.68-10.42-1.68H651v45.36Zm19.39-91.53H651v32.9h5.67q11.34,0,15.55-1.94a14.53,14.53,0,0,0,6.56-5.86,16.94,16.94,0,0,0,2.35-8.91A16,16,0,0,0,678.49,20a14,14,0,0,0-7.34-5.63Q666.41,12.69,655.44,12.68Z"/></symbol><symbol id="tech" data-name="tech" viewBox="0 0 709.04 173.83"><polygon class="cls-3" points="0 33.24 61.38 33.24 61.38 171.65 103.6 171.65 103.6 33.24 164.98 33.24 164.98 2.18 0 2.18 0 33.24"/><polygon class="cls-3" points="233.4 99.84 310.67 99.84 310.67 68.78 233.4 68.78 233.4 33.24 314.43 33.24 314.43 2.18 191.18 2.18 191.18 171.65 316.13 171.65 316.13 140.6 233.4 140.6 233.4 99.84"/><path class="cls-3" d="M445,138.65q-26.46,0-43.37-14.67T384.67,86.74q0-22.45,17.16-36.94t44.22-14.5q27.52,0,58.35,17.35V14.92Q479.29,0,443,0q-45.48,0-73.69,25.47t-28.2,62q0,36.53,26.74,61.44t71.88,24.93A140.23,140.23,0,0,0,506.34,157V120q-24,11.78-36.15,15.23A91.81,91.81,0,0,1,445,138.65Z"/><polygon class="cls-3" points="666.83 2.18 666.83 70.24 582.4 70.24 582.4 2.18 540.18 2.18 540.18 171.65 582.4 171.65 582.4 103.11 666.83 103.11 666.83 171.65 709.04 171.65 709.04 2.18 666.83 2.18"/></symbol><symbol id="pizza" data-name="pizza" viewBox="0 0 332.96 472.63"><path class="cls-3" d="M89.46,75.43,73.63,113.9A22.35,22.35,0,1,1,58,107.46L73.55,69.6C47.91,60.33,23.26,52.08,0,44.92L0,81l0,79.88,70,28.79a22.36,22.36,0,1,1-6.44,15.66L.09,179.14l0,38.74,0,38.65A23.56,23.56,0,1,1,1,299.72l-.84-.38L.25,472.63l90.21-91-17.77-7.31a22.35,22.35,0,1,1,6.44-15.65l24.21,10,76.24-76.92,40-40.4L276,194.45l25.37-25.59c-43.18-22.57-93.51-46-148-68.42C131.62,91.5,110.25,83.15,89.46,75.43Zm82.72,206.75a23.56,23.56,0,1,1-12.83-30.75A23.56,23.56,0,0,1,172.18,282.18ZM172.31,158a23.56,23.56,0,1,1-30.74,12.83A23.57,23.57,0,0,1,172.31,158Z"/><path class="cls-2" d="M172.9,52.87C106.87,25.71,45,7.31,0,0L0,44.92C23.26,52.08,47.91,60.33,73.55,69.6q7.9,2.85,15.91,5.83c20.79,7.72,42.16,16.07,63.88,25,54.49,22.41,104.82,45.85,148,68.42L333,137C295.83,110.47,238.94,80,172.9,52.87Z"/><path class="cls-2" d="M154.39,201.57a23.56,23.56,0,1,0-12.82-30.74A23.56,23.56,0,0,0,154.39,201.57Zm13.59-33a12.17,12.17,0,1,1-15.89,6.62A12.17,12.17,0,0,1,168,168.53Z"/><path class="cls-2" d="M128.61,264.25a23.56,23.56,0,1,0,30.74-12.82A23.56,23.56,0,0,0,128.61,264.25Zm33,13.6A12.18,12.18,0,1,1,155,262,12.18,12.18,0,0,1,161.65,277.85Z"/><path class="cls-2" d="M31.75,286.89A23.56,23.56,0,0,0,.13,256.53v14.21a12.17,12.17,0,1,1,0,14.4v14.2l.84.38A23.57,23.57,0,0,0,31.75,286.89Z"/><path class="cls-2" d="M77.51,226a22.36,22.36,0,1,0-7.41-36.38l-70-28.79v18.3l63.57,26.15A22.35,22.35,0,0,0,77.51,226Zm11.23-27.9a7.72,7.72,0,1,1-10.08,4.2A7.72,7.72,0,0,1,88.74,198.11Z"/><path class="cls-2" d="M65.28,337.94a22.36,22.36,0,1,0,7.41,36.37l17.77,7.31,12.88-13-24.21-10A22.34,22.34,0,0,0,65.28,337.94Zm-11.23,27.9a7.72,7.72,0,1,1,10.08-4.2A7.72,7.72,0,0,1,54.05,365.84Z"/><path class="cls-2" d="M37.26,121.32a22.36,22.36,0,1,0,36.37-7.42L89.46,75.43q-8-3-15.91-5.83L58,107.46A22.36,22.36,0,0,0,37.26,121.32ZM61,122.47a7.72,7.72,0,1,1-10.08,4.2A7.72,7.72,0,0,1,61,122.47Z"/></symbol></defs><g class="cls-4"><use width="716.39" height="104.21" transform="translate(386.95 1865.45) scale(8.72)" xlink:href="#dinner"/></g><g class="cls-5"><use width="709.04" height="173.83" transform="translate(151.3 157.32) scale(8.72)" xlink:href="#tech"/></g><use width="332.96" height="472.63" transform="translate(1269.61 627.16) scale(4.56)" xlink:href="#pizza"/></svg>