<svg id="Camada_1" data-name="Camada 1" xmlns="http://www.w3.org/2000/svg" viewBox="0 0 2938.11 2938.11"><defs><style>.cls-1{fill:#fff;}.cls-2{fill:#34e7e4;}</style></defs><path class="cls-1" d="M387,2773V1865.45H693.38q185.43,0,293.42,55.63t171.76,163.62q63.75,108,63.76,235.52a448.12,448.12,0,0,1-289.52,419q-51.4,20.19-94.33,27t-164,6.82Zm292.77-791.77H517.07v676H683.62q97.59,0,151.59-13.34t90.11-33.83a308.16,308.16,0,0,0,66-50.42q96.27-97.59,96.29-246.58,0-146.39-98.89-238.77a316.12,316.12,0,0,0-83.61-56.6q-47.17-22.11-89.45-29.28T679.72,1981.26Z"/><polygon class="cls-1" points="151.3 447.22 686.66 447.22 686.66 1654.43 1054.86 1654.43 1054.86 447.22 1590.22 447.22 1590.22 176.37 151.3 176.37 151.3 447.22"/><path class="cls-1" d="M1677.24,970.85l-72.11,175.33a101.88,101.88,0,1,1-71.34-29.34l71-172.55c-116.84-42.21-229.18-79.84-335.06-112.44l.09,164.21.19,364,319,131.22a101.87,101.87,0,1,1-29.34,71.33L1270,1443.45l.09,176.53.09,176.11a107.32,107.32,0,1,1,4,196.77c-1.31-.54-2.59-1.12-3.87-1.7l.41,789.63,411.06-414.72-80.94-33.29a101.87,101.87,0,1,1,29.34-71.33l110.33,45.38,347.39-350.49,182.49-184.11,256.73-259,115.6-116.63C2446,1293.73,2216.61,1187,1968.31,1084.82,1869.33,1044.11,1772,1006.05,1677.24,970.85Zm376.92,942.09a107.33,107.33,0,1,1-58.44-140.09A107.33,107.33,0,0,1,2054.16,1912.94Zm.61-565.82a107.33,107.33,0,1,1-140.09,58.44A107.34,107.34,0,0,1,2054.77,1347.12Z"/><path class="cls-2" d="M2057.47,868.05c-300.89-123.76-582.72-207.59-787.86-240.89l.1,204.69c105.88,32.6,218.22,70.23,335.06,112.44q36,13,72.47,26.56c94.74,35.2,192.09,73.26,291.07,114,248.3,102.13,477.66,208.91,674.41,311.77l144.09-145.38C2617.6,1130.54,2358.36,991.82,2057.47,868.05Z"/><path class="cls-2" d="M1973.12,1545.65a107.33,107.33,0,1,0-58.44-140.09A107.33,107.33,0,0,0,1973.12,1545.65Zm61.93-150.58a55.49,55.49,0,1,1-72.42,30.21A55.48,55.48,0,0,1,2035.05,1395.07Z"/><path class="cls-2" d="M1855.63,1831.28a107.33,107.33,0,1,0,140.09-58.43A107.33,107.33,0,0,0,1855.63,1831.28Zm150.58,61.94a55.49,55.49,0,1,1-30.21-72.43A55.48,55.48,0,0,1,2006.21,1893.22Z"/><path class="cls-2" d="M1414.27,1934.43a107.31,107.31,0,0,0-144.06-138.34l0,64.72a55.46,55.46,0,1,1,0,65.63l0,64.72c1.28.58,2.56,1.16,3.87,1.7A107.33,107.33,0,0,0,1414.27,1934.43Z"/><path class="cls-2" d="M1622.8,1657A101.87,101.87,0,1,0,1589,1491.26L1270,1360v.71l0,82.7,289.64,119.14A101.9,101.9,0,0,0,1622.8,1657ZM1674,1529.86A35.17,35.17,0,1,1,1628,1549,35.18,35.18,0,0,1,1674,1529.86Z"/><path class="cls-2" d="M1567.05,2167a101.87,101.87,0,1,0,33.79,165.75l80.94,33.29,58.73-59.24-110.33-45.38A101.9,101.9,0,0,0,1567.05,2167Zm-51.15,127.14a35.17,35.17,0,1,1,45.91-19.14A35.17,35.17,0,0,1,1515.9,2294.17Z"/><path class="cls-2" d="M1439.37,1180a101.87,101.87,0,1,0,165.76-33.79l72.11-175.33q-36.49-13.56-72.47-26.56l-71,172.55A101.9,101.9,0,0,0,1439.37,1180Zm108,5.24a35.17,35.17,0,1,1-45.9,19.15A35.17,35.17,0,0,1,1547.37,1185.21Z"/></svg>