<svg id="Camada_1" data-name="Camada 1" xmlns="http://www.w3.org/2000/svg" viewBox="0 0 2917.31 467.12"><defs><style>.cls-1{fill:#1e272e;}.cls-2{fill:#485460;}</style></defs><path class="cls-1" d="M262.35,103.34v39.17H184.94V317.07H131.69V142.51H54.28V103.34Z"/><path class="cls-1" d="M453,277.91v39.16H295.4V103.34H450.84v39.17H348.64v44.83h97.45V226.5H348.64v51.41Z"/><path class="cls-1" d="M692.87,251.9v46.66q-40.08,21.27-84,21.27-56.93,0-90.65-31.44T484.49,210.9q0-46.05,35.57-78.18t93-32.13q45.74,0,77.41,18.82V167q-38.86-21.88-73.59-21.88-34.11,0-55.76,18.28T539.42,210q0,28.46,21.34,47t54.69,18.51a115.45,115.45,0,0,0,31.83-4.36Q662.57,266.74,692.87,251.9Z"/><path class="cls-1" d="M948.52,103.34V317.07H895.28V230.63H788.79v86.44H735.55V103.34h53.24v85.83H895.28V103.34Z"/><path class="cls-2" d="M1062.05,316.77V103.34h72.06q43.61,0,69,13.08a98.73,98.73,0,0,1,40.39,38.48,107.05,107.05,0,0,1,15,55.38,104.75,104.75,0,0,1-31.82,75.43,103.35,103.35,0,0,1-36.26,23.1,107.89,107.89,0,0,1-22.18,6.35q-10.1,1.6-38.56,1.61Zm68.85-186.19h-38.25V289.53h39.16q22.95,0,35.65-3.13a83.79,83.79,0,0,0,21.19-8,72.4,72.4,0,0,0,15.53-11.85q22.63-22.95,22.64-58,0-34.42-23.25-56.15a74.6,74.6,0,0,0-19.66-13.31,82.47,82.47,0,0,0-21-6.88Q1152.93,130.58,1130.9,130.58Z"/><path class="cls-2" d="M1366,103.34h30.6V317.07H1366Z"/><path class="cls-2" d="M1682.76,103.34h29.07V317.07h-26.32l-142.89-164.6v164.6h-28.77V103.34h24.79l144.12,166Z"/><path class="cls-2" d="M1996.32,103.34h29.07V317.07h-26.31l-142.9-164.6v164.6h-28.76V103.34h24.78l144.12,166Z"/><path class="cls-2" d="M2140.07,103.34h121.17v27.24h-90.57v65.17h87.51v27.39h-87.51v66.39h93.47v27.24H2140.07Z"/><path class="cls-2" d="M2366.58,317.07V103.34h53.55q32.43,0,51.48,16.07t19,43.45q0,18.66-9.33,32.28t-26.78,20.35a94.11,94.11,0,0,1,20,18.35q9.79,11.64,27.54,40.55,11.17,18.21,17.9,27.38l11.32,15.3h-36.41L2485.62,303c-.3-.51-.92-1.38-1.83-2.6l-6-8.42-9.47-15.62-10.24-16.68a166.14,166.14,0,0,0-17.36-21q-7.89-7.8-14.25-11.23t-21.36-3.44h-8v93Zm39.78-187.72h-9.18v67.47h11.63q23.25,0,31.9-4a29.86,29.86,0,0,0,13.46-12,34.83,34.83,0,0,0,4.82-18.28,32.68,32.68,0,0,0-5.36-18.28,28.59,28.59,0,0,0-15.07-11.55Q2428.86,129.35,2406.36,129.35Z"/><path class="cls-1" d="M2700.17,101.09,2689,128.2a15.76,15.76,0,1,1-11-4.54L2689,97c-18.07-6.53-35.44-12.34-51.81-17.39V105l0,56.28,49.34,20.29a15.76,15.76,0,1,1-4.54,11l-44.79-18.43v27.3l0,27.23a16.6,16.6,0,1,1,.61,30.43l-.6-.26.07,122.11,63.56-64.13-12.52-5.15a15.75,15.75,0,1,1,4.54-11l17.06,7,53.72-54.19L2791.89,225l39.7-40,17.88-18c-30.42-15.9-65.89-32.41-104.29-48.21C2729.87,112.42,2714.82,106.53,2700.17,101.09Zm58.28,145.68a16.6,16.6,0,1,1-9-21.66A16.59,16.59,0,0,1,2758.45,246.77Zm.1-87.49a16.6,16.6,0,1,1-21.66,9A16.6,16.6,0,0,1,2758.55,159.28Z"/><path class="cls-2" d="M2759,85.19c-46.53-19.14-90.11-32.1-121.84-37.25l0,31.65c16.37,5,33.74,10.86,51.81,17.39q5.57,2,11.21,4.11c14.65,5.44,29.7,11.33,45,17.62,38.4,15.8,73.87,32.31,104.29,48.21l22.28-22.48C2845.59,125.78,2805.5,104.33,2759,85.19Z"/><path class="cls-2" d="M2745.92,190a16.6,16.6,0,1,0-9-21.67A16.61,16.61,0,0,0,2745.92,190Zm9.58-23.29a8.58,8.58,0,1,1-11.2,4.67A8.58,8.58,0,0,1,2755.5,166.69Z"/><path class="cls-2" d="M2727.75,234.15a16.6,16.6,0,1,0,21.67-9A16.6,16.6,0,0,0,2727.75,234.15Zm23.29,9.57a8.58,8.58,0,1,1-4.67-11.2A8.57,8.57,0,0,1,2751,243.72Z"/><path class="cls-2" d="M2659.5,250.1a16.59,16.59,0,0,0-22.27-21.4v10a8.59,8.59,0,1,1,0,10.15v10l.6.26A16.59,16.59,0,0,0,2659.5,250.1Z"/><path class="cls-2" d="M2691.75,207.2a15.76,15.76,0,1,0-5.22-25.64l-49.34-20.29v12.9L2682,192.6A15.77,15.77,0,0,0,2691.75,207.2Zm7.91-19.67a5.44,5.44,0,1,1-7.1,3A5.45,5.45,0,0,1,2699.66,187.53Z"/><path class="cls-2" d="M2683.13,286.07a15.75,15.75,0,1,0,5.22,25.63l12.52,5.15,9.08-9.17-17.06-7A15.75,15.75,0,0,0,2683.13,286.07Zm-7.91,19.66a5.44,5.44,0,1,1,7.1-3A5.44,5.44,0,0,1,2675.22,305.73Z"/><path class="cls-2" d="M2663.38,133.43A15.75,15.75,0,1,0,2689,128.2l11.15-27.11Q2694.53,99,2689,97l-11,26.68A15.77,15.77,0,0,0,2663.38,133.43Zm16.71.81a5.44,5.44,0,1,1-7.1,3A5.45,5.45,0,0,1,2680.09,134.24Z"/></svg>