<svg id="Camada_1" data-name="Camada 1" xmlns="http://www.w3.org/2000/svg" viewBox="0 0 2899.52 1311.64"><defs><style>.cls-1{fill:#1e272e;}.cls-2{fill:#3c40c6;}</style></defs><polygon class="cls-1" points="66.32 158.97 217.76 158.97 217.76 500.47 321.92 500.47 321.92 158.97 473.37 158.97 473.37 82.34 66.32 82.34 66.32 158.97"/><polygon class="cls-1" points="642.17 323.28 832.83 323.28 832.83 246.66 642.17 246.66 642.17 158.97 842.11 158.97 842.11 82.34 538.02 82.34 538.02 500.47 846.3 500.47 846.3 423.85 642.17 423.85 642.17 323.28"/><path class="cls-1" d="M1164.16,419.06q-65.27,0-107-36.22T1015.4,291q0-55.36,42.35-91.14t109.1-35.77q67.94,0,144,42.8V113.77Q1248.86,77,1159.37,77q-112.24,0-181.83,62.85T908,292.75q0,90.11,66,151.6t177.34,61.51q85.89,0,164.31-41.61V373q-59.26,29-89.19,37.56A225.85,225.85,0,0,1,1164.16,419.06Z"/><polygon class="cls-1" points="1711.58 82.34 1711.58 250.25 1503.27 250.25 1503.27 82.34 1399.11 82.34 1399.11 500.47 1503.27 500.47 1503.27 331.36 1711.58 331.36 1711.58 500.47 1815.74 500.47 1815.74 82.34 1711.58 82.34"/><path class="cls-1" d="M133,816.91V560.17h86.69q52.44,0,83,15.73t48.59,46.29a128.75,128.75,0,0,1,18,66.62A125.95,125.95,0,0,1,331,779.55a124.34,124.34,0,0,1-43.62,27.79A129.88,129.88,0,0,1,260.71,815q-12.15,1.93-46.38,1.93Zm82.82-224h-46V784.15H216.9q27.61,0,42.89-3.77t25.49-9.57A87.33,87.33,0,0,0,304,756.54q27.24-27.6,27.24-69.75,0-41.41-28-67.55a89.44,89.44,0,0,0-23.65-16,99,99,0,0,0-25.3-8.28Q242.3,592.92,215.8,592.93Z"/><path class="cls-1" d="M503.42,560.17h36.81V817.28H503.42Z"/><path class="cls-1" d="M877.54,560.17h35V817.28H880.85L709,619.26v198H674.35V560.17h29.82L877.54,759.86Z"/><path class="cls-1" d="M1249.82,560.17h35V817.28h-31.65l-171.9-198v198h-34.6V560.17h29.81l173.37,199.69Z"/><path class="cls-1" d="M1418.92,560.17h145.76v32.76h-109v78.4H1561v32.94H1455.73v79.88h112.45v32.76H1418.92Z"/><path class="cls-1" d="M1702.3,817.28V560.17h64.42q39,0,61.93,19.32t22.91,52.27q0,22.46-11.22,38.83t-32.21,24.48q12.33,8.1,24.11,22.09t33.13,48.77q13.43,21.9,21.53,32.94l13.62,18.41h-43.8l-11.21-16.94c-.37-.62-1.11-1.66-2.21-3.13l-7.17-10.13-11.4-18.78-12.31-20.08Q1801,732.4,1791.53,723t-17.13-13.51q-7.65-4.12-25.71-4.13h-9.58v111.9Zm47.86-225.83h-11.05v81.17h14q28,0,38.37-4.79a36,36,0,0,0,16.2-14.45,41.94,41.94,0,0,0,5.8-22,39.32,39.32,0,0,0-6.44-22,34.51,34.51,0,0,0-18.13-13.9Q1777.2,591.46,1750.16,591.45Z"/><circle class="cls-1" cx="473.55" cy="1063.67" r="66.42"/><circle class="cls-1" cx="1493.29" cy="1063.67" r="66.42"/><circle class="cls-2" cx="983.42" cy="1063.67" r="93.46"/><path class="cls-1" d="M2232.4,258.85l-39.05,94.94a55.16,55.16,0,1,1-38.62-15.89l38.43-93.43c-63.27-22.86-124.09-43.23-181.42-60.89l0,88.92.11,197.08,172.74,71.06a55.16,55.16,0,1,1-15.89,38.62l-156.83-64.51,0,95.59,0,95.35a58.11,58.11,0,1,1,2.15,106.55c-.71-.29-1.4-.61-2.1-.92l.23,427.56,222.57-224.55-43.83-18a55.16,55.16,0,1,1,15.89-38.63l59.74,24.57,188.1-189.77,98.82-99.69,139-140.25,62.59-63.16C2648.65,433.68,2524.45,375.86,2390,320.56,2336.41,298.52,2283.7,277.91,2232.4,258.85ZM2436.49,769a58.11,58.11,0,1,1-31.64-75.85A58.12,58.12,0,0,1,2436.49,769Zm.34-306.37A58.12,58.12,0,1,1,2361,494.23,58.12,58.12,0,0,1,2436.83,462.59Z"/><path class="cls-2" d="M2438.28,203.19c-162.92-67-315.52-112.41-426.6-130.44l.06,110.83c57.33,17.66,118.15,38,181.42,60.89q19.47,7,39.24,14.38c51.3,19.06,104,39.67,157.61,61.71,134.44,55.3,258.64,113.12,365.17,168.81l78-78.71C2741.58,345.32,2601.21,270.2,2438.28,203.19Z"/><path class="cls-2" d="M2392.61,570.09A58.12,58.12,0,1,0,2361,494.23,58.13,58.13,0,0,0,2392.61,570.09Zm33.54-81.53a30,30,0,1,1-39.22,16.35A30,30,0,0,1,2426.15,488.56Z"/><path class="cls-2" d="M2329,724.75a58.11,58.11,0,1,0,75.85-31.64A58.12,58.12,0,0,0,2329,724.75Zm81.53,33.54a30,30,0,1,1-16.36-39.22A30,30,0,0,1,2410.53,758.29Z"/><path class="cls-2" d="M2090,780.6a58.11,58.11,0,0,0-78-74.91l0,35a30,30,0,1,1,0,35.54v35c.7.31,1.39.63,2.1.92A58.11,58.11,0,0,0,2090,780.6Z"/><path class="cls-2" d="M2202.92,630.39a55.16,55.16,0,1,0-18.29-89.75l-172.74-71.06V470l0,44.78,156.83,64.51A55.2,55.2,0,0,0,2202.92,630.39Zm27.7-68.85a19,19,0,1,1-24.86,10.37A19,19,0,0,1,2230.62,561.54Z"/><path class="cls-2" d="M2172.74,906.55A55.16,55.16,0,1,0,2191,996.3l43.83,18,31.8-32.09-59.74-24.57A55.16,55.16,0,0,0,2172.74,906.55ZM2145,975.39A19,19,0,1,1,2169.9,965,19,19,0,0,1,2145,975.39Z"/><path class="cls-2" d="M2103.6,372.08a55.16,55.16,0,1,0,89.75-18.29l39.05-94.94q-19.76-7.34-39.24-14.38l-38.43,93.43A55.18,55.18,0,0,0,2103.6,372.08Zm58.48,2.84a19,19,0,1,1-24.86,10.37A19,19,0,0,1,2162.08,374.92Z"/></svg>