<svg width="434" height="690" viewBox="0 0 434 690" fill="none" xmlns="http://www.w3.org/2000/svg">
<g clip-path="url(#clip0_76_22)">
<path d="M307.755 154.539C307.755 157.729 307.652 160.893 307.445 164.029C306.286 182.12 301.716 199.827 293.975 216.219C293.915 216.359 293.845 216.489 293.785 216.619C293.425 217.379 293.055 218.139 292.675 218.889C290.373 223.525 287.819 228.032 285.025 232.389C272.262 252.392 254.769 268.942 234.091 280.579C213.413 292.216 190.187 298.58 166.465 299.109L167.895 381.349L186.545 371.529L189.875 377.859L168.035 389.359L170.705 542.099L170.735 544.139L156.315 545.349L156.345 545.299L160.885 299.119C141.791 298.845 122.943 294.781 105.433 287.162C87.9227 279.544 72.1006 268.523 58.885 254.739C57.9754 253.799 57.075 252.829 56.1951 251.869C56.1551 251.829 56.1253 251.789 56.095 251.759C45.0841 239.751 36.179 225.971 29.7552 210.999C29.8953 211.159 30.0452 211.309 30.1853 211.469C15.6671 177.519 14.6825 139.302 27.4331 104.649C40.1838 69.9967 65.7042 41.5324 98.7649 25.0892C99.2649 24.8392 99.7752 24.5992 100.275 24.3492C132.978 8.59705 170.406 5.70674 205.14 16.2512C239.874 26.7956 269.378 50.0051 287.805 81.2792C288.685 82.7593 289.535 84.2693 290.355 85.7892C301.802 106.895 307.783 130.53 307.755 154.539Z" fill="#E5E5E5"/>
<path d="M201.285 545.686C225.07 545.686 244.352 526.404 244.352 502.618C244.352 478.833 225.07 459.551 201.285 459.551C177.499 459.551 158.218 478.833 158.218 502.618C158.218 526.404 177.499 545.686 201.285 545.686Z" fill="#2F2E41"/>
<path d="M252.186 532.223H213.603V545.306H252.186V532.223Z" fill="#2F2E41"/>
<path d="M252.459 545.307C254.717 545.307 256.547 540.425 256.547 534.403C256.547 528.382 254.717 523.5 252.459 523.5C250.201 523.5 248.37 528.382 248.37 534.403C248.37 540.425 250.201 545.307 252.459 545.307Z" fill="#2F2E41"/>
<path d="M243.186 531.223H204.603V544.306H243.186V531.223Z" fill="#2F2E41"/>
<path d="M243.459 544.307C245.717 544.307 247.547 539.425 247.547 533.403C247.547 527.382 245.717 522.5 243.459 522.5C241.201 522.5 239.37 527.382 239.37 533.403C239.37 539.425 241.201 544.307 243.459 544.307Z" fill="#2F2E41"/>
<path d="M159.508 462.567C156.031 446.993 167.147 431.257 184.337 427.418C201.527 423.58 218.281 433.093 221.758 448.667C225.236 464.241 213.843 469.985 196.653 473.823C179.464 477.661 162.986 478.141 159.508 462.567Z" fill="#6C63FF"/>
<path d="M217.837 500.166C215.585 500.212 213.375 499.549 211.52 498.271C209.664 496.992 208.257 495.164 207.498 493.043C207.456 492.918 207.439 492.787 207.448 492.656C207.457 492.525 207.492 492.397 207.55 492.279C207.609 492.162 207.69 492.057 207.789 491.971C207.888 491.884 208.003 491.818 208.127 491.776C208.252 491.735 208.383 491.718 208.514 491.727C208.645 491.736 208.773 491.771 208.891 491.829C209.008 491.887 209.113 491.969 209.2 492.068C209.286 492.167 209.352 492.282 209.394 492.406C210.908 496.914 216.092 499.271 220.948 497.66C223.359 496.874 225.362 495.168 226.521 492.912C227.018 491.94 227.316 490.88 227.4 489.792C227.483 488.704 227.349 487.61 227.006 486.574C226.964 486.45 226.947 486.318 226.956 486.187C226.965 486.056 227 485.928 227.059 485.811C227.117 485.693 227.198 485.588 227.297 485.502C227.396 485.415 227.511 485.35 227.636 485.308C227.76 485.266 227.892 485.249 228.023 485.258C228.154 485.267 228.282 485.302 228.399 485.36C228.517 485.419 228.622 485.5 228.708 485.599C228.794 485.698 228.86 485.813 228.902 485.937C229.33 487.223 229.498 488.58 229.396 489.931C229.294 491.282 228.925 492.599 228.31 493.806C226.913 496.536 224.493 498.604 221.578 499.558C220.371 499.959 219.109 500.165 217.837 500.166Z" fill="white"/>
<path d="M237.021 506.019C238.177 508.28 238.388 510.907 237.607 513.322C236.826 515.738 235.118 517.745 232.858 518.901C230.597 520.057 227.97 520.267 225.555 519.486C223.139 518.706 221.132 516.997 219.976 514.737L219.968 514.72C217.565 510.011 220.885 507.088 225.594 504.685C230.304 502.283 234.619 501.31 237.021 506.019Z" fill="white"/>
<path d="M390.733 546.074H9.73267C9.46745 546.074 9.21308 545.968 9.02554 545.781C8.83801 545.593 8.73267 545.339 8.73267 545.074C8.73267 544.809 8.83801 544.554 9.02554 544.367C9.21308 544.179 9.46745 544.074 9.73267 544.074H390.733C390.998 544.074 391.252 544.179 391.44 544.367C391.627 544.554 391.733 544.809 391.733 545.074C391.733 545.339 391.627 545.593 391.44 545.781C391.252 545.968 390.998 546.074 390.733 546.074Z" fill="#3F3D56"/>
<path d="M191.65 559.633C195.661 558.598 196.241 547.401 192.946 534.624C189.651 521.847 183.728 512.327 179.717 513.362C175.705 514.396 175.125 525.593 178.42 538.37C181.715 551.148 187.638 560.667 191.65 559.633Z" fill="#2F2E41"/>
<path d="M263.966 451.278H247.58C247.424 451.278 247.272 451.231 247.143 451.143C247.014 451.054 246.915 450.929 246.859 450.784C246.803 450.638 246.792 450.479 246.828 450.327C246.864 450.175 246.946 450.038 247.061 449.933L261.962 436.438H248.195C247.99 436.438 247.793 436.357 247.648 436.212C247.503 436.067 247.422 435.87 247.422 435.665C247.422 435.46 247.503 435.264 247.648 435.119C247.793 434.974 247.99 434.893 248.195 434.893H263.966C264.122 434.893 264.274 434.94 264.403 435.028C264.532 435.116 264.631 435.242 264.687 435.387C264.743 435.533 264.754 435.692 264.718 435.844C264.682 435.996 264.6 436.133 264.485 436.238L249.584 449.733H263.966C264.171 449.733 264.367 449.814 264.512 449.959C264.657 450.104 264.739 450.301 264.739 450.505C264.739 450.71 264.657 450.907 264.512 451.052C264.367 451.197 264.171 451.278 263.966 451.278Z" fill="#CBCBCB"/>
<path d="M284.83 427.323H268.444C268.288 427.323 268.136 427.276 268.007 427.188C267.878 427.099 267.779 426.974 267.723 426.829C267.667 426.683 267.656 426.524 267.692 426.372C267.728 426.22 267.81 426.083 267.925 425.978L282.826 412.483H269.059C268.854 412.483 268.657 412.402 268.512 412.257C268.367 412.112 268.286 411.915 268.286 411.71C268.286 411.505 268.367 411.309 268.512 411.164C268.657 411.019 268.854 410.938 269.059 410.938H284.83C284.986 410.938 285.138 410.985 285.267 411.073C285.396 411.161 285.495 411.287 285.551 411.432C285.607 411.578 285.618 411.737 285.582 411.889C285.546 412.041 285.464 412.178 285.349 412.283L270.448 425.778H284.83C285.035 425.778 285.231 425.859 285.376 426.004C285.521 426.149 285.603 426.346 285.603 426.551C285.603 426.755 285.521 426.952 285.376 427.097C285.231 427.242 285.035 427.323 284.83 427.323Z" fill="#CBCBCB"/>
<path d="M275.557 401.05H259.171C259.015 401.05 258.863 401.003 258.734 400.915C258.605 400.826 258.506 400.701 258.45 400.555C258.394 400.41 258.383 400.25 258.42 400.099C258.456 399.947 258.537 399.809 258.653 399.705L273.553 386.21H259.786C259.581 386.21 259.384 386.128 259.239 385.984C259.095 385.839 259.013 385.642 259.013 385.437C259.013 385.232 259.095 385.036 259.239 384.891C259.384 384.746 259.581 384.664 259.786 384.664H275.557C275.713 384.664 275.866 384.712 275.994 384.8C276.123 384.888 276.222 385.014 276.278 385.159C276.334 385.305 276.345 385.464 276.309 385.616C276.273 385.768 276.192 385.905 276.076 386.01L261.176 399.505H275.557C275.762 399.505 275.959 399.586 276.103 399.731C276.248 399.876 276.33 400.072 276.33 400.277C276.33 400.482 276.248 400.679 276.103 400.824C275.959 400.969 275.762 401.05 275.557 401.05Z" fill="#CBCBCB"/>
<path d="M389.119 177.377L401.914 167.143C391.974 166.047 387.89 171.468 386.219 175.758C378.453 172.534 370 176.76 370 176.76L395.6 186.053C394.309 182.604 392.06 179.594 389.119 177.377Z" fill="#3F3D56"/>
<path d="M22.1192 10.3768L34.9141 0.143314C24.9743 -0.953306 20.8903 4.46759 19.2188 8.7583C11.4535 5.53384 3 9.75968 3 9.75968L28.6001 19.0534C27.3086 15.6039 25.0605 12.594 22.1192 10.3768Z" fill="#3F3D56"/>
<path d="M421.119 45.3768L433.914 35.1433C423.974 34.0467 419.89 39.4676 418.219 43.7583C410.453 40.5338 402 44.7597 402 44.7597L427.6 54.0534C426.309 50.6039 424.06 47.594 421.119 45.3768Z" fill="#3F3D56"/>
</g>
<path d="M18.8026 609.636V630H15.0838L6.22443 617.183H6.07528V630H1.76989V609.636H5.5483L14.3381 622.443H14.517V609.636H18.8026ZM29.2404 630.298C27.6694 630.298 26.3171 629.98 25.1836 629.344C24.0567 628.701 23.1883 627.793 22.5785 626.619C21.9686 625.439 21.6637 624.044 21.6637 622.433C21.6637 620.862 21.9686 619.483 22.5785 618.297C23.1883 617.11 24.0468 616.186 25.1538 615.523C26.2674 614.86 27.5733 614.528 29.0714 614.528C30.079 614.528 31.0169 614.691 31.8853 615.016C32.7603 615.334 33.5226 615.814 34.1722 616.457C34.8285 617.1 35.3389 617.909 35.7035 618.884C36.0681 619.851 36.2504 620.985 36.2504 622.284V623.447H23.354V620.822H32.2631C32.2631 620.213 32.1306 619.672 31.8654 619.202C31.6003 618.731 31.2324 618.363 30.7617 618.098C30.2977 617.826 29.7575 617.69 29.141 617.69C28.498 617.69 27.9279 617.839 27.4308 618.138C26.9402 618.429 26.5558 618.824 26.2773 619.321C25.9989 619.812 25.8564 620.358 25.8498 620.962V623.457C25.8498 624.213 25.989 624.866 26.2674 625.416C26.5524 625.966 26.9535 626.391 27.4705 626.689C27.9876 626.987 28.6007 627.136 29.31 627.136C29.7807 627.136 30.2115 627.07 30.6026 626.938C30.9937 626.805 31.3285 626.606 31.6069 626.341C31.8853 626.076 32.0974 625.751 32.2433 625.366L36.1609 625.625C35.962 626.566 35.5543 627.388 34.9379 628.091C34.328 628.787 33.5392 629.33 32.5714 629.722C31.6102 630.106 30.4999 630.298 29.2404 630.298ZM43.2504 621.17V630H39.0146V614.727H43.0515V617.422H43.2305C43.5685 616.534 44.1353 615.831 44.9308 615.314C45.7262 614.79 46.6907 614.528 47.8242 614.528C48.8848 614.528 49.8095 614.76 50.5984 615.224C51.3872 615.688 52.0004 616.351 52.4379 617.213C52.8754 618.068 53.0941 619.089 53.0941 620.276V630H48.8583V621.031C48.8649 620.097 48.6263 619.367 48.1424 618.844C47.6585 618.313 46.9923 618.048 46.1438 618.048C45.5737 618.048 45.07 618.171 44.6325 618.416C44.2016 618.661 43.8635 619.019 43.6183 619.49C43.3796 619.954 43.257 620.514 43.2504 621.17ZM60.6683 621.17V630H56.4325V609.636H60.549V617.422H60.728C61.0727 616.52 61.6295 615.814 62.3984 615.304C63.1674 614.787 64.1319 614.528 65.2919 614.528C66.3525 614.528 67.2772 614.76 68.0661 615.224C68.8615 615.682 69.478 616.341 69.9155 617.203C70.3596 618.058 70.5784 619.082 70.5717 620.276V630H66.3359V621.031C66.3426 620.09 66.1039 619.357 65.62 618.834C65.1428 618.31 64.4732 618.048 63.6115 618.048C63.0348 618.048 62.5244 618.171 62.0803 618.416C61.6428 618.661 61.2981 619.019 61.0462 619.49C60.8009 619.954 60.675 620.514 60.6683 621.17ZM83.6992 623.497V614.727H87.935V630H83.8683V627.226H83.7092C83.3645 628.121 82.7911 628.84 81.989 629.384C81.1935 629.927 80.2224 630.199 79.0756 630.199C78.0548 630.199 77.1566 629.967 76.381 629.503C75.6055 629.039 74.9989 628.379 74.5614 627.524C74.1306 626.669 73.9118 625.645 73.9052 624.452V614.727H78.141V623.696C78.1476 624.598 78.3896 625.31 78.8668 625.834C79.3441 626.357 79.9838 626.619 80.7859 626.619C81.2963 626.619 81.7736 626.503 82.2177 626.271C82.6618 626.033 83.0198 625.681 83.2915 625.217C83.57 624.753 83.7058 624.18 83.6992 623.497ZM91.3232 630V614.727H95.3601V617.422H95.5391C95.8572 616.527 96.3875 615.821 97.13 615.304C97.8724 614.787 98.7607 614.528 99.7947 614.528C100.842 614.528 101.734 614.79 102.469 615.314C103.205 615.831 103.696 616.534 103.941 617.422H104.1C104.412 616.547 104.975 615.848 105.79 615.324C106.612 614.794 107.584 614.528 108.704 614.528C110.129 614.528 111.286 614.982 112.174 615.891C113.069 616.792 113.516 618.071 113.516 619.729V630H109.29V620.564C109.29 619.715 109.065 619.079 108.614 618.655C108.164 618.231 107.6 618.018 106.924 618.018C106.155 618.018 105.555 618.264 105.124 618.754C104.693 619.238 104.478 619.878 104.478 620.673V630H100.371V620.474C100.371 619.725 100.156 619.129 99.7251 618.685C99.3009 618.241 98.7408 618.018 98.0447 618.018C97.5741 618.018 97.1499 618.138 96.772 618.376C96.4008 618.608 96.1058 618.937 95.8871 619.361C95.6683 619.778 95.5589 620.269 95.5589 620.832V630H91.3232ZM123.343 635.727V614.727H127.519V617.293H127.708C127.893 616.882 128.162 616.464 128.513 616.04C128.871 615.609 129.335 615.251 129.905 614.966C130.482 614.674 131.198 614.528 132.053 614.528C133.167 614.528 134.194 614.82 135.135 615.403C136.077 615.98 136.829 616.852 137.392 618.018C137.956 619.179 138.238 620.634 138.238 622.384C138.238 624.087 137.962 625.526 137.412 626.699C136.869 627.866 136.126 628.75 135.185 629.354C134.25 629.95 133.203 630.249 132.043 630.249C131.221 630.249 130.522 630.113 129.945 629.841C129.375 629.569 128.908 629.228 128.543 628.817C128.178 628.399 127.9 627.978 127.708 627.554H127.578V635.727H123.343ZM127.489 622.364C127.489 623.272 127.615 624.064 127.867 624.74C128.119 625.416 128.483 625.943 128.961 626.321C129.438 626.692 130.018 626.878 130.701 626.878C131.39 626.878 131.973 626.689 132.451 626.311C132.928 625.927 133.289 625.396 133.534 624.72C133.786 624.037 133.912 623.252 133.912 622.364C133.912 621.482 133.79 620.706 133.544 620.037C133.299 619.367 132.938 618.844 132.461 618.466C131.983 618.088 131.397 617.899 130.701 617.899C130.011 617.899 129.428 618.081 128.951 618.446C128.48 618.811 128.119 619.328 127.867 619.997C127.615 620.667 127.489 621.455 127.489 622.364ZM148.022 630.298C146.451 630.298 145.098 629.98 143.965 629.344C142.838 628.701 141.97 627.793 141.36 626.619C140.75 625.439 140.445 624.044 140.445 622.433C140.445 620.862 140.75 619.483 141.36 618.297C141.97 617.11 142.828 616.186 143.935 615.523C145.049 614.86 146.355 614.528 147.853 614.528C148.86 614.528 149.798 614.691 150.667 615.016C151.542 615.334 152.304 615.814 152.953 616.457C153.61 617.1 154.12 617.909 154.485 618.884C154.849 619.851 155.032 620.985 155.032 622.284V623.447H142.135V620.822H151.044C151.044 620.213 150.912 619.672 150.647 619.202C150.382 618.731 150.014 618.363 149.543 618.098C149.079 617.826 148.539 617.69 147.922 617.69C147.279 617.69 146.709 617.839 146.212 618.138C145.721 618.429 145.337 618.824 145.059 619.321C144.78 619.812 144.638 620.358 144.631 620.962V623.457C144.631 624.213 144.77 624.866 145.049 625.416C145.334 625.966 145.735 626.391 146.252 626.689C146.769 626.987 147.382 627.136 148.091 627.136C148.562 627.136 148.993 627.07 149.384 626.938C149.775 626.805 150.11 626.606 150.388 626.341C150.667 626.076 150.879 625.751 151.025 625.366L154.942 625.625C154.743 626.566 154.336 627.388 153.719 628.091C153.109 628.787 152.32 629.33 151.353 629.722C150.391 630.106 149.281 630.298 148.022 630.298ZM163.424 630.249C162.264 630.249 161.213 629.95 160.272 629.354C159.337 628.75 158.595 627.866 158.044 626.699C157.501 625.526 157.229 624.087 157.229 622.384C157.229 620.634 157.511 619.179 158.074 618.018C158.638 616.852 159.387 615.98 160.321 615.403C161.263 614.82 162.293 614.528 163.414 614.528C164.269 614.528 164.981 614.674 165.551 614.966C166.128 615.251 166.592 615.609 166.944 616.04C167.301 616.464 167.573 616.882 167.759 617.293H167.888V609.636H172.114V630H167.938V627.554H167.759C167.56 627.978 167.278 628.399 166.914 628.817C166.556 629.228 166.088 629.569 165.512 629.841C164.942 630.113 164.246 630.249 163.424 630.249ZM164.766 626.878C165.449 626.878 166.025 626.692 166.496 626.321C166.973 625.943 167.338 625.416 167.59 624.74C167.848 624.064 167.978 623.272 167.978 622.364C167.978 621.455 167.852 620.667 167.6 619.997C167.348 619.328 166.983 618.811 166.506 618.446C166.029 618.081 165.449 617.899 164.766 617.899C164.07 617.899 163.483 618.088 163.006 618.466C162.529 618.844 162.167 619.367 161.922 620.037C161.677 620.706 161.554 621.482 161.554 622.364C161.554 623.252 161.677 624.037 161.922 624.72C162.174 625.396 162.535 625.927 163.006 626.311C163.483 626.689 164.07 626.878 164.766 626.878ZM175.597 630V614.727H179.832V630H175.597ZM177.724 612.759C177.095 612.759 176.554 612.55 176.104 612.132C175.66 611.708 175.438 611.201 175.438 610.611C175.438 610.027 175.66 609.527 176.104 609.109C176.554 608.685 177.095 608.473 177.724 608.473C178.354 608.473 178.891 608.685 179.335 609.109C179.786 609.527 180.011 610.027 180.011 610.611C180.011 611.201 179.786 611.708 179.335 612.132C178.891 612.55 178.354 612.759 177.724 612.759ZM188.853 630.249C187.693 630.249 186.643 629.95 185.701 629.354C184.767 628.75 184.024 627.866 183.474 626.699C182.931 625.526 182.659 624.087 182.659 622.384C182.659 620.634 182.94 619.179 183.504 618.018C184.067 616.852 184.816 615.98 185.751 615.403C186.692 614.82 187.723 614.528 188.843 614.528C189.699 614.528 190.411 614.674 190.981 614.966C191.558 615.251 192.022 615.609 192.373 616.04C192.731 616.464 193.003 616.882 193.189 617.293H193.318V609.636H197.544V630H193.368V627.554H193.189C192.99 627.978 192.708 628.399 192.343 628.817C191.985 629.228 191.518 629.569 190.941 629.841C190.371 630.113 189.675 630.249 188.853 630.249ZM190.196 626.878C190.878 626.878 191.455 626.692 191.926 626.321C192.403 625.943 192.768 625.416 193.02 624.74C193.278 624.064 193.407 623.272 193.407 622.364C193.407 621.455 193.281 620.667 193.029 619.997C192.778 619.328 192.413 618.811 191.936 618.446C191.458 618.081 190.878 617.899 190.196 617.899C189.5 617.899 188.913 618.088 188.436 618.466C187.958 618.844 187.597 619.367 187.352 620.037C187.107 620.706 186.984 621.482 186.984 622.364C186.984 623.252 187.107 624.037 187.352 624.72C187.604 625.396 187.965 625.927 188.436 626.311C188.913 626.689 189.5 626.878 190.196 626.878ZM207.927 630.298C206.382 630.298 205.047 629.97 203.92 629.314C202.799 628.651 201.934 627.73 201.325 626.55C200.715 625.363 200.41 623.988 200.41 622.423C200.41 620.846 200.715 619.467 201.325 618.287C201.934 617.1 202.799 616.179 203.92 615.523C205.047 614.86 206.382 614.528 207.927 614.528C209.471 614.528 210.804 614.86 211.924 615.523C213.051 616.179 213.919 617.1 214.529 618.287C215.139 619.467 215.444 620.846 215.444 622.423C215.444 623.988 215.139 625.363 214.529 626.55C213.919 627.73 213.051 628.651 211.924 629.314C210.804 629.97 209.471 630.298 207.927 630.298ZM207.947 627.017C208.649 627.017 209.236 626.818 209.707 626.42C210.177 626.016 210.532 625.466 210.771 624.77C211.016 624.074 211.138 623.282 211.138 622.393C211.138 621.505 211.016 620.713 210.771 620.017C210.532 619.321 210.177 618.771 209.707 618.366C209.236 617.962 208.649 617.76 207.947 617.76C207.237 617.76 206.641 617.962 206.157 618.366C205.68 618.771 205.318 619.321 205.073 620.017C204.835 620.713 204.715 621.505 204.715 622.393C204.715 623.282 204.835 624.074 205.073 624.77C205.318 625.466 205.68 626.016 206.157 626.42C206.641 626.818 207.237 627.017 207.947 627.017ZM237.386 619.082L233.508 619.321C233.442 618.99 233.299 618.691 233.081 618.426C232.862 618.154 232.574 617.939 232.216 617.78C231.864 617.614 231.443 617.531 230.953 617.531C230.297 617.531 229.743 617.67 229.292 617.949C228.842 618.221 228.616 618.585 228.616 619.043C228.616 619.407 228.762 619.715 229.054 619.967C229.345 620.219 229.846 620.421 230.555 620.574L233.319 621.131C234.804 621.436 235.911 621.926 236.64 622.602C237.369 623.278 237.734 624.167 237.734 625.267C237.734 626.268 237.439 627.146 236.849 627.902C236.266 628.658 235.464 629.248 234.443 629.672C233.429 630.089 232.259 630.298 230.933 630.298C228.911 630.298 227.3 629.877 226.1 629.036C224.907 628.187 224.208 627.034 224.002 625.575L228.169 625.357C228.295 625.973 228.6 626.444 229.083 626.768C229.567 627.087 230.187 627.246 230.943 627.246C231.685 627.246 232.282 627.103 232.733 626.818C233.19 626.527 233.422 626.152 233.429 625.695C233.422 625.31 233.26 624.995 232.941 624.75C232.623 624.498 232.133 624.306 231.47 624.173L228.825 623.646C227.333 623.348 226.223 622.831 225.494 622.095C224.771 621.359 224.41 620.421 224.41 619.281C224.41 618.3 224.675 617.455 225.206 616.746C225.743 616.036 226.495 615.49 227.463 615.105C228.437 614.721 229.577 614.528 230.883 614.528C232.812 614.528 234.33 614.936 235.437 615.751C236.551 616.567 237.2 617.677 237.386 619.082ZM247.362 630.298C245.79 630.298 244.438 629.98 243.305 629.344C242.178 628.701 241.309 627.793 240.7 626.619C240.09 625.439 239.785 624.044 239.785 622.433C239.785 620.862 240.09 619.483 240.7 618.297C241.309 617.11 242.168 616.186 243.275 615.523C244.388 614.86 245.694 614.528 247.192 614.528C248.2 614.528 249.138 614.691 250.006 615.016C250.881 615.334 251.644 615.814 252.293 616.457C252.95 617.1 253.46 617.909 253.825 618.884C254.189 619.851 254.371 620.985 254.371 622.284V623.447H241.475V620.822H250.384C250.384 620.213 250.252 619.672 249.987 619.202C249.721 618.731 249.353 618.363 248.883 618.098C248.419 617.826 247.879 617.69 247.262 617.69C246.619 617.69 246.049 617.839 245.552 618.138C245.061 618.429 244.677 618.824 244.398 619.321C244.12 619.812 243.978 620.358 243.971 620.962V623.457C243.971 624.213 244.11 624.866 244.388 625.416C244.674 625.966 245.075 626.391 245.592 626.689C246.109 626.987 246.722 627.136 247.431 627.136C247.902 627.136 248.333 627.07 248.724 626.938C249.115 626.805 249.45 626.606 249.728 626.341C250.006 626.076 250.219 625.751 250.364 625.366L254.282 625.625C254.083 626.566 253.675 627.388 253.059 628.091C252.449 628.787 251.66 629.33 250.692 629.722C249.731 630.106 248.621 630.298 247.362 630.298ZM261.371 609.636V630H257.136V609.636H261.371ZM271.725 630.298C270.154 630.298 268.801 629.98 267.668 629.344C266.541 628.701 265.673 627.793 265.063 626.619C264.453 625.439 264.148 624.044 264.148 622.433C264.148 620.862 264.453 619.483 265.063 618.297C265.673 617.11 266.531 616.186 267.638 615.523C268.752 614.86 270.058 614.528 271.556 614.528C272.563 614.528 273.501 614.691 274.37 615.016C275.245 615.334 276.007 615.814 276.657 616.457C277.313 617.1 277.823 617.909 278.188 618.884C278.552 619.851 278.735 620.985 278.735 622.284V623.447H265.838V620.822H274.748C274.748 620.213 274.615 619.672 274.35 619.202C274.085 618.731 273.717 618.363 273.246 618.098C272.782 617.826 272.242 617.69 271.625 617.69C270.982 617.69 270.412 617.839 269.915 618.138C269.425 618.429 269.04 618.824 268.762 619.321C268.483 619.812 268.341 620.358 268.334 620.962V623.457C268.334 624.213 268.473 624.866 268.752 625.416C269.037 625.966 269.438 626.391 269.955 626.689C270.472 626.987 271.085 627.136 271.794 627.136C272.265 627.136 272.696 627.07 273.087 626.938C273.478 626.805 273.813 626.606 274.091 626.341C274.37 626.076 274.582 625.751 274.728 625.366L278.645 625.625C278.446 626.566 278.039 627.388 277.422 628.091C276.812 628.787 276.024 629.33 275.056 629.722C274.095 630.106 272.984 630.298 271.725 630.298ZM288.4 630.298C286.835 630.298 285.489 629.967 284.363 629.304C283.242 628.634 282.381 627.706 281.777 626.52C281.181 625.333 280.882 623.968 280.882 622.423C280.882 620.859 281.184 619.487 281.787 618.307C282.397 617.12 283.262 616.196 284.382 615.533C285.503 614.863 286.835 614.528 288.38 614.528C289.712 614.528 290.879 614.77 291.88 615.254C292.881 615.738 293.673 616.418 294.256 617.293C294.839 618.168 295.161 619.195 295.221 620.375H291.223C291.111 619.613 290.812 619 290.328 618.536C289.851 618.065 289.225 617.83 288.449 617.83C287.793 617.83 287.22 618.009 286.729 618.366C286.245 618.718 285.867 619.232 285.596 619.908C285.324 620.584 285.188 621.402 285.188 622.364C285.188 623.338 285.32 624.167 285.586 624.849C285.857 625.532 286.239 626.053 286.729 626.411C287.22 626.768 287.793 626.947 288.449 626.947C288.933 626.947 289.367 626.848 289.752 626.649C290.143 626.45 290.464 626.162 290.716 625.784C290.975 625.4 291.144 624.939 291.223 624.402H295.221C295.154 625.569 294.836 626.596 294.266 627.484C293.703 628.366 292.924 629.055 291.929 629.553C290.935 630.05 289.758 630.298 288.4 630.298ZM297.933 630V614.727H302.168V630H297.933ZM300.06 612.759C299.431 612.759 298.89 612.55 298.44 612.132C297.996 611.708 297.773 611.201 297.773 610.611C297.773 610.027 297.996 609.527 298.44 609.109C298.89 608.685 299.431 608.473 300.06 608.473C300.69 608.473 301.227 608.685 301.671 609.109C302.122 609.527 302.347 610.027 302.347 610.611C302.347 611.201 302.122 611.708 301.671 612.132C301.227 612.55 300.69 612.759 300.06 612.759ZM312.462 630.298C310.917 630.298 309.582 629.97 308.455 629.314C307.335 628.651 306.47 627.73 305.86 626.55C305.25 625.363 304.945 623.988 304.945 622.423C304.945 620.846 305.25 619.467 305.86 618.287C306.47 617.1 307.335 616.179 308.455 615.523C309.582 614.86 310.917 614.528 312.462 614.528C314.007 614.528 315.339 614.86 316.459 615.523C317.586 616.179 318.454 617.1 319.064 618.287C319.674 619.467 319.979 620.846 319.979 622.423C319.979 623.988 319.674 625.363 319.064 626.55C318.454 627.73 317.586 628.651 316.459 629.314C315.339 629.97 314.007 630.298 312.462 630.298ZM312.482 627.017C313.185 627.017 313.771 626.818 314.242 626.42C314.712 626.016 315.067 625.466 315.306 624.77C315.551 624.074 315.674 623.282 315.674 622.393C315.674 621.505 315.551 620.713 315.306 620.017C315.067 619.321 314.712 618.771 314.242 618.366C313.771 617.962 313.185 617.76 312.482 617.76C311.773 617.76 311.176 617.962 310.692 618.366C310.215 618.771 309.854 619.321 309.608 620.017C309.37 620.713 309.25 621.505 309.25 622.393C309.25 623.282 309.37 624.074 309.608 624.77C309.854 625.466 310.215 626.016 310.692 626.42C311.176 626.818 311.773 627.017 312.482 627.017ZM326.969 621.17V630H322.733V614.727H326.77V617.422H326.949C327.287 616.534 327.854 615.831 328.65 615.314C329.445 614.79 330.409 614.528 331.543 614.528C332.604 614.528 333.528 614.76 334.317 615.224C335.106 615.688 335.719 616.351 336.157 617.213C336.594 618.068 336.813 619.089 336.813 620.276V630H332.577V621.031C332.584 620.097 332.345 619.367 331.861 618.844C331.377 618.313 330.711 618.048 329.863 618.048C329.292 618.048 328.789 618.171 328.351 618.416C327.92 618.661 327.582 619.019 327.337 619.49C327.098 619.954 326.976 620.514 326.969 621.17ZM344.506 630.288C343.532 630.288 342.664 630.119 341.901 629.781C341.139 629.437 340.536 628.929 340.092 628.26C339.654 627.584 339.435 626.742 339.435 625.734C339.435 624.886 339.591 624.173 339.903 623.597C340.214 623.02 340.638 622.556 341.175 622.205C341.712 621.853 342.322 621.588 343.005 621.409C343.694 621.23 344.417 621.104 345.173 621.031C346.061 620.938 346.777 620.852 347.32 620.773C347.864 620.687 348.258 620.561 348.504 620.395C348.749 620.229 348.871 619.984 348.871 619.659V619.599C348.871 618.97 348.673 618.482 348.275 618.138C347.884 617.793 347.327 617.621 346.604 617.621C345.842 617.621 345.236 617.79 344.785 618.128C344.334 618.459 344.036 618.877 343.89 619.381L339.972 619.062C340.171 618.134 340.562 617.332 341.146 616.656C341.729 615.973 342.481 615.45 343.403 615.085C344.331 614.714 345.405 614.528 346.624 614.528C347.473 614.528 348.285 614.628 349.06 614.827C349.843 615.026 350.535 615.334 351.138 615.751C351.748 616.169 352.229 616.706 352.58 617.362C352.932 618.012 353.107 618.791 353.107 619.699V630H349.09V627.882H348.971C348.726 628.359 348.397 628.78 347.987 629.145C347.576 629.503 347.082 629.785 346.505 629.99C345.928 630.189 345.262 630.288 344.506 630.288ZM345.719 627.365C346.343 627.365 346.893 627.242 347.37 626.997C347.847 626.745 348.222 626.407 348.494 625.983C348.765 625.559 348.901 625.078 348.901 624.541V622.92C348.769 623.007 348.586 623.086 348.354 623.159C348.129 623.225 347.874 623.288 347.589 623.348C347.304 623.401 347.019 623.451 346.734 623.497C346.449 623.537 346.19 623.573 345.958 623.607C345.461 623.679 345.027 623.795 344.656 623.955C344.284 624.114 343.996 624.329 343.79 624.601C343.585 624.866 343.482 625.197 343.482 625.595C343.482 626.172 343.691 626.613 344.109 626.918C344.533 627.216 345.07 627.365 345.719 627.365ZM362.021 630.249C360.861 630.249 359.811 629.95 358.869 629.354C357.935 628.75 357.192 627.866 356.642 626.699C356.098 625.526 355.827 624.087 355.827 622.384C355.827 620.634 356.108 619.179 356.672 618.018C357.235 616.852 357.984 615.98 358.919 615.403C359.86 614.82 360.891 614.528 362.011 614.528C362.866 614.528 363.579 614.674 364.149 614.966C364.726 615.251 365.19 615.609 365.541 616.04C365.899 616.464 366.171 616.882 366.357 617.293H366.486V609.636H370.712V630H366.536V627.554H366.357C366.158 627.978 365.876 628.399 365.511 628.817C365.153 629.228 364.686 629.569 364.109 629.841C363.539 630.113 362.843 630.249 362.021 630.249ZM363.364 626.878C364.046 626.878 364.623 626.692 365.094 626.321C365.571 625.943 365.936 625.416 366.188 624.74C366.446 624.064 366.575 623.272 366.575 622.364C366.575 621.455 366.449 620.667 366.197 619.997C365.946 619.328 365.581 618.811 365.104 618.446C364.626 618.081 364.046 617.899 363.364 617.899C362.668 617.899 362.081 618.088 361.604 618.466C361.126 618.844 360.765 619.367 360.52 620.037C360.275 620.706 360.152 621.482 360.152 622.364C360.152 623.252 360.275 624.037 360.52 624.72C360.772 625.396 361.133 625.927 361.604 626.311C362.081 626.689 362.668 626.878 363.364 626.878ZM381.095 630.298C379.55 630.298 378.215 629.97 377.088 629.314C375.967 628.651 375.102 627.73 374.493 626.55C373.883 625.363 373.578 623.988 373.578 622.423C373.578 620.846 373.883 619.467 374.493 618.287C375.102 617.1 375.967 616.179 377.088 615.523C378.215 614.86 379.55 614.528 381.095 614.528C382.639 614.528 383.972 614.86 385.092 615.523C386.219 616.179 387.087 617.1 387.697 618.287C388.307 619.467 388.612 620.846 388.612 622.423C388.612 623.988 388.307 625.363 387.697 626.55C387.087 627.73 386.219 628.651 385.092 629.314C383.972 629.97 382.639 630.298 381.095 630.298ZM381.115 627.017C381.817 627.017 382.404 626.818 382.875 626.42C383.345 626.016 383.7 625.466 383.939 624.77C384.184 624.074 384.306 623.282 384.306 622.393C384.306 621.505 384.184 620.713 383.939 620.017C383.7 619.321 383.345 618.771 382.875 618.366C382.404 617.962 381.817 617.76 381.115 617.76C380.405 617.76 379.809 617.962 379.325 618.366C378.848 618.771 378.486 619.321 378.241 620.017C378.002 620.713 377.883 621.505 377.883 622.393C377.883 623.282 378.002 624.074 378.241 624.77C378.486 625.466 378.848 626.016 379.325 626.42C379.809 626.818 380.405 627.017 381.115 627.017ZM396.427 609.636L396.039 623.895H392.4L392.002 609.636H396.427ZM394.22 630.259C393.564 630.259 393 630.027 392.529 629.562C392.059 629.092 391.827 628.528 391.833 627.872C391.827 627.223 392.059 626.666 392.529 626.202C393 625.738 393.564 625.506 394.22 625.506C394.85 625.506 395.403 625.738 395.88 626.202C396.358 626.666 396.6 627.223 396.606 627.872C396.6 628.31 396.484 628.711 396.258 629.075C396.039 629.433 395.751 629.722 395.393 629.94C395.035 630.152 394.644 630.259 394.22 630.259Z" fill="black"/>
<path d="M5.59109 646.455V661H3.82972V646.455H5.59109ZM10.5716 654.438V661H8.89542V650.091H10.5147V651.795H10.6568C10.9125 651.241 11.3007 650.796 11.8216 650.46C12.3424 650.119 13.0147 649.949 13.8386 649.949C14.5772 649.949 15.2235 650.1 15.7775 650.403C16.3315 650.702 16.7624 651.156 17.0701 651.767C17.3779 652.373 17.5318 653.14 17.5318 654.068V661H15.8556V654.182C15.8556 653.325 15.6331 652.657 15.188 652.179C14.743 651.696 14.1322 651.455 13.3556 651.455C12.8206 651.455 12.3424 651.571 11.921 651.803C11.5043 652.035 11.1752 652.373 10.9338 652.818C10.6923 653.263 10.5716 653.803 10.5716 654.438ZM20.5946 661V650.091H22.2708V661H20.5946ZM21.4469 648.273C21.1202 648.273 20.8385 648.161 20.6017 647.939C20.3697 647.716 20.2537 647.449 20.2537 647.136C20.2537 646.824 20.3697 646.556 20.6017 646.334C20.8385 646.111 21.1202 646 21.4469 646C21.7736 646 22.053 646.111 22.285 646.334C22.5217 646.556 22.6401 646.824 22.6401 647.136C22.6401 647.449 22.5217 647.716 22.285 647.939C22.053 648.161 21.7736 648.273 21.4469 648.273ZM29.7725 661.227C28.7498 661.227 27.8691 660.986 27.1305 660.503C26.3919 660.02 25.8237 659.355 25.426 658.507C25.0282 657.66 24.8294 656.691 24.8294 655.602C24.8294 654.494 25.033 653.517 25.4402 652.669C25.8521 651.817 26.425 651.152 27.1589 650.673C27.8975 650.19 28.7593 649.949 29.7441 649.949C30.5112 649.949 31.2025 650.091 31.818 650.375C32.4335 650.659 32.9378 651.057 33.3308 651.568C33.7238 652.08 33.9676 652.676 34.0623 653.358H32.3862C32.2583 652.861 31.9743 652.42 31.5339 652.037C31.0983 651.649 30.5112 651.455 29.7725 651.455C29.1191 651.455 28.5462 651.625 28.0538 651.966C27.5661 652.302 27.185 652.778 26.9103 653.393C26.6404 654.004 26.5055 654.722 26.5055 655.545C26.5055 656.388 26.6381 657.122 26.9032 657.747C27.1731 658.372 27.5519 658.857 28.0396 659.203C28.532 659.549 29.1097 659.722 29.7725 659.722C30.2082 659.722 30.6035 659.646 30.9586 659.494C31.3137 659.343 31.6144 659.125 31.8606 658.841C32.1068 658.557 32.282 658.216 32.3862 657.818H34.0623C33.9676 658.462 33.7333 659.042 33.3592 659.558C32.9899 660.07 32.4998 660.477 31.889 660.78C31.283 661.078 30.5775 661.227 29.7725 661.227ZM36.5126 661V650.091H38.1887V661H36.5126ZM37.3649 648.273C37.0382 648.273 36.7565 648.161 36.5197 647.939C36.2877 647.716 36.1717 647.449 36.1717 647.136C36.1717 646.824 36.2877 646.556 36.5197 646.334C36.7565 646.111 37.0382 646 37.3649 646C37.6916 646 37.9709 646.111 38.2029 646.334C38.4397 646.556 38.5581 646.824 38.5581 647.136C38.5581 647.449 38.4397 647.716 38.2029 647.939C37.9709 648.161 37.6916 648.273 37.3649 648.273ZM45.8326 661.227C44.7814 661.227 43.8747 660.995 43.1124 660.531C42.3548 660.062 41.7701 659.409 41.3581 658.571C40.9509 657.728 40.7473 656.748 40.7473 655.631C40.7473 654.513 40.9509 653.528 41.3581 652.676C41.7701 651.819 42.343 651.152 43.0769 650.673C43.8155 650.19 44.6773 649.949 45.6621 649.949C46.2303 649.949 46.7914 650.044 47.3453 650.233C47.8993 650.422 48.4036 650.73 48.8581 651.156C49.3127 651.578 49.6749 652.136 49.9448 652.832C50.2147 653.528 50.3496 654.385 50.3496 655.403V656.114H41.9405V654.665H48.6451C48.6451 654.049 48.522 653.5 48.2757 653.017C48.0343 652.534 47.6886 652.153 47.2388 651.874C46.7937 651.594 46.2682 651.455 45.6621 651.455C44.9945 651.455 44.4168 651.62 43.9292 651.952C43.4462 652.278 43.0745 652.705 42.8141 653.23C42.5537 653.756 42.4235 654.319 42.4235 654.92V655.886C42.4235 656.71 42.5655 657.409 42.8496 657.982C43.1384 658.55 43.5385 658.983 44.0499 659.281C44.5613 659.575 45.1555 659.722 45.8326 659.722C46.2729 659.722 46.6706 659.66 47.0257 659.537C47.3856 659.409 47.6957 659.22 47.9561 658.969C48.2166 658.713 48.4178 658.396 48.5598 658.017L50.1792 658.472C50.0087 659.021 49.7222 659.504 49.3198 659.92C48.9173 660.332 48.4202 660.654 47.8283 660.886C47.2364 661.114 46.5712 661.227 45.8326 661.227ZM65.3993 656.54V650.091H67.0755V661H65.3993V659.153H65.2857C65.03 659.707 64.6323 660.179 64.0925 660.567C63.5527 660.95 62.8709 661.142 62.0471 661.142C61.3652 661.142 60.7592 660.993 60.2289 660.695C59.6986 660.392 59.2819 659.937 58.9789 659.331C58.6758 658.72 58.5243 657.951 58.5243 657.023V650.091H60.2005V656.909C60.2005 657.705 60.423 658.339 60.8681 658.812C61.3179 659.286 61.8908 659.523 62.5868 659.523C63.0035 659.523 63.4273 659.416 63.8581 659.203C64.2937 658.99 64.6583 658.663 64.9519 658.223C65.2502 657.783 65.3993 657.222 65.3993 656.54ZM70.1454 661V650.091H71.7647V651.795H71.9068C72.1341 651.213 72.501 650.761 73.0076 650.439C73.5143 650.112 74.1227 649.949 74.8329 649.949C75.5526 649.949 76.1516 650.112 76.6298 650.439C77.1127 650.761 77.4892 651.213 77.7591 651.795H77.8727C78.152 651.232 78.5711 650.785 79.1298 650.453C79.6885 650.117 80.3585 649.949 81.1397 649.949C82.1151 649.949 82.9129 650.254 83.5332 650.865C84.1535 651.471 84.4636 652.416 84.4636 653.699V661H82.7875V653.699C82.7875 652.894 82.5673 652.319 82.127 651.973C81.6866 651.627 81.1681 651.455 80.5716 651.455C79.8045 651.455 79.2103 651.687 78.7889 652.151C78.3675 652.61 78.1568 653.192 78.1568 653.898V661H76.4522V653.528C76.4522 652.908 76.251 652.409 75.8485 652.03C75.4461 651.646 74.9276 651.455 74.2931 651.455C73.8575 651.455 73.4503 651.571 73.0716 651.803C72.6975 652.035 72.3945 652.357 72.1625 652.768C71.9352 653.176 71.8216 653.647 71.8216 654.182V661H70.1454ZM94.8294 654.438V661H93.1532V650.091H94.7725V651.795H94.9146C95.1703 651.241 95.5585 650.796 96.0794 650.46C96.6002 650.119 97.2725 649.949 98.0964 649.949C98.835 649.949 99.4814 650.1 100.035 650.403C100.589 650.702 101.02 651.156 101.328 651.767C101.636 652.373 101.79 653.14 101.79 654.068V661H100.113V654.182C100.113 653.325 99.8909 652.657 99.4458 652.179C99.0008 651.696 98.39 651.455 97.6135 651.455C97.0784 651.455 96.6002 651.571 96.1788 651.803C95.7621 652.035 95.4331 652.373 95.1916 652.818C94.9501 653.263 94.8294 653.803 94.8294 654.438ZM109.284 661.227C108.299 661.227 107.435 660.993 106.692 660.524C105.953 660.055 105.376 659.4 104.959 658.557C104.547 657.714 104.341 656.729 104.341 655.602C104.341 654.466 104.547 653.474 104.959 652.626C105.376 651.779 105.953 651.121 106.692 650.652C107.435 650.183 108.299 649.949 109.284 649.949C110.269 649.949 111.131 650.183 111.869 650.652C112.613 651.121 113.191 651.779 113.602 652.626C114.019 653.474 114.227 654.466 114.227 655.602C114.227 656.729 114.019 657.714 113.602 658.557C113.191 659.4 112.613 660.055 111.869 660.524C111.131 660.993 110.269 661.227 109.284 661.227ZM109.284 659.722C110.032 659.722 110.648 659.53 111.131 659.146C111.614 658.763 111.971 658.259 112.203 657.634C112.435 657.009 112.551 656.331 112.551 655.602C112.551 654.873 112.435 654.194 112.203 653.564C111.971 652.934 111.614 652.425 111.131 652.037C110.648 651.649 110.032 651.455 109.284 651.455C108.536 651.455 107.921 651.649 107.438 652.037C106.955 652.425 106.597 652.934 106.365 653.564C106.133 654.194 106.017 654.873 106.017 655.602C106.017 656.331 106.133 657.009 106.365 657.634C106.597 658.259 106.955 658.763 107.438 659.146C107.921 659.53 108.536 659.722 109.284 659.722ZM125.316 650.091L121.282 661H119.577L115.543 650.091H117.361L120.373 658.784H120.486L123.498 650.091H125.316ZM131.569 661.227C130.585 661.227 129.72 660.993 128.977 660.524C128.238 660.055 127.661 659.4 127.244 658.557C126.832 657.714 126.626 656.729 126.626 655.602C126.626 654.466 126.832 653.474 127.244 652.626C127.661 651.779 128.238 651.121 128.977 650.652C129.72 650.183 130.585 649.949 131.569 649.949C132.554 649.949 133.416 650.183 134.155 650.652C134.898 651.121 135.476 651.779 135.888 652.626C136.304 653.474 136.513 654.466 136.513 655.602C136.513 656.729 136.304 657.714 135.888 658.557C135.476 659.4 134.898 660.055 134.155 660.524C133.416 660.993 132.554 661.227 131.569 661.227ZM131.569 659.722C132.318 659.722 132.933 659.53 133.416 659.146C133.899 658.763 134.256 658.259 134.488 657.634C134.72 657.009 134.836 656.331 134.836 655.602C134.836 654.873 134.72 654.194 134.488 653.564C134.256 652.934 133.899 652.425 133.416 652.037C132.933 651.649 132.318 651.455 131.569 651.455C130.821 651.455 130.206 651.649 129.723 652.037C129.24 652.425 128.882 652.934 128.65 653.564C128.418 654.194 128.302 654.873 128.302 655.602C128.302 656.331 128.418 657.009 128.65 657.634C128.882 658.259 129.24 658.763 129.723 659.146C130.206 659.53 130.821 659.722 131.569 659.722ZM144.696 665.091V650.091H146.316V651.824H146.514C146.637 651.634 146.808 651.393 147.026 651.099C147.248 650.801 147.566 650.536 147.977 650.304C148.394 650.067 148.958 649.949 149.668 649.949C150.586 649.949 151.396 650.179 152.097 650.638C152.798 651.097 153.344 651.748 153.737 652.591C154.13 653.434 154.327 654.428 154.327 655.574C154.327 656.729 154.13 657.731 153.737 658.578C153.344 659.421 152.8 660.074 152.104 660.538C151.408 660.998 150.605 661.227 149.696 661.227C148.995 661.227 148.434 661.111 148.013 660.879C147.592 660.643 147.267 660.375 147.04 660.077C146.813 659.774 146.637 659.523 146.514 659.324H146.372V665.091H144.696ZM146.344 655.545C146.344 656.369 146.465 657.096 146.706 657.726C146.948 658.351 147.3 658.841 147.764 659.196C148.228 659.546 148.797 659.722 149.469 659.722C150.17 659.722 150.754 659.537 151.223 659.168C151.697 658.794 152.052 658.292 152.289 657.662C152.53 657.027 152.651 656.322 152.651 655.545C152.651 654.778 152.532 654.087 152.296 653.472C152.064 652.851 151.711 652.361 151.237 652.001C150.769 651.637 150.179 651.455 149.469 651.455C148.787 651.455 148.214 651.627 147.75 651.973C147.286 652.314 146.936 652.792 146.699 653.408C146.462 654.018 146.344 654.731 146.344 655.545ZM161.458 661.227C160.406 661.227 159.5 660.995 158.737 660.531C157.98 660.062 157.395 659.409 156.983 658.571C156.576 657.728 156.372 656.748 156.372 655.631C156.372 654.513 156.576 653.528 156.983 652.676C157.395 651.819 157.968 651.152 158.702 650.673C159.441 650.19 160.302 649.949 161.287 649.949C161.855 649.949 162.416 650.044 162.97 650.233C163.524 650.422 164.029 650.73 164.483 651.156C164.938 651.578 165.3 652.136 165.57 652.832C165.84 653.528 165.975 654.385 165.975 655.403V656.114H157.566V654.665H164.27C164.27 654.049 164.147 653.5 163.901 653.017C163.659 652.534 163.314 652.153 162.864 651.874C162.419 651.594 161.893 651.455 161.287 651.455C160.619 651.455 160.042 651.62 159.554 651.952C159.071 652.278 158.7 652.705 158.439 653.23C158.179 653.756 158.048 654.319 158.048 654.92V655.886C158.048 656.71 158.191 657.409 158.475 657.982C158.763 658.55 159.164 658.983 159.675 659.281C160.186 659.575 160.78 659.722 161.458 659.722C161.898 659.722 162.296 659.66 162.651 659.537C163.011 659.409 163.321 659.22 163.581 658.969C163.842 658.713 164.043 658.396 164.185 658.017L165.804 658.472C165.634 659.021 165.347 659.504 164.945 659.92C164.542 660.332 164.045 660.654 163.453 660.886C162.861 661.114 162.196 661.227 161.458 661.227ZM172.644 661.227C171.735 661.227 170.932 660.998 170.236 660.538C169.54 660.074 168.995 659.421 168.602 658.578C168.209 657.731 168.013 656.729 168.013 655.574C168.013 654.428 168.209 653.434 168.602 652.591C168.995 651.748 169.542 651.097 170.243 650.638C170.944 650.179 171.753 649.949 172.672 649.949C173.382 649.949 173.943 650.067 174.355 650.304C174.772 650.536 175.089 650.801 175.307 651.099C175.53 651.393 175.702 651.634 175.825 651.824H175.968V646.455H177.644V661H176.024V659.324H175.825C175.702 659.523 175.527 659.774 175.3 660.077C175.073 660.375 174.748 660.643 174.327 660.879C173.905 661.111 173.344 661.227 172.644 661.227ZM172.871 659.722C173.543 659.722 174.111 659.546 174.575 659.196C175.039 658.841 175.392 658.351 175.634 657.726C175.875 657.096 175.996 656.369 175.996 655.545C175.996 654.731 175.878 654.018 175.641 653.408C175.404 652.792 175.054 652.314 174.59 651.973C174.126 651.627 173.553 651.455 172.871 651.455C172.161 651.455 171.569 651.637 171.095 652.001C170.627 652.361 170.274 652.851 170.037 653.472C169.805 654.087 169.689 654.778 169.689 655.545C169.689 656.322 169.807 657.027 170.044 657.662C170.286 658.292 170.641 658.794 171.11 659.168C171.583 659.537 172.17 659.722 172.871 659.722ZM180.946 661V650.091H182.622V661H180.946ZM181.798 648.273C181.472 648.273 181.19 648.161 180.953 647.939C180.721 647.716 180.605 647.449 180.605 647.136C180.605 646.824 180.721 646.556 180.953 646.334C181.19 646.111 181.472 646 181.798 646C182.125 646 182.405 646.111 182.637 646.334C182.873 646.556 182.992 646.824 182.992 647.136C182.992 647.449 182.873 647.716 182.637 647.939C182.405 648.161 182.125 648.273 181.798 648.273ZM189.812 661.227C188.903 661.227 188.1 660.998 187.404 660.538C186.708 660.074 186.163 659.421 185.77 658.578C185.377 657.731 185.181 656.729 185.181 655.574C185.181 654.428 185.377 653.434 185.77 652.591C186.163 651.748 186.71 651.097 187.411 650.638C188.112 650.179 188.921 649.949 189.84 649.949C190.55 649.949 191.111 650.067 191.523 650.304C191.94 650.536 192.257 650.801 192.475 651.099C192.698 651.393 192.87 651.634 192.993 651.824H193.135V646.455H194.812V661H193.192V659.324H192.993C192.87 659.523 192.695 659.774 192.468 660.077C192.241 660.375 191.916 660.643 191.495 660.879C191.073 661.111 190.512 661.227 189.812 661.227ZM190.039 659.722C190.711 659.722 191.279 659.546 191.743 659.196C192.207 658.841 192.56 658.351 192.802 657.726C193.043 657.096 193.164 656.369 193.164 655.545C193.164 654.731 193.046 654.018 192.809 653.408C192.572 652.792 192.222 652.314 191.758 651.973C191.294 651.627 190.721 651.455 190.039 651.455C189.329 651.455 188.737 651.637 188.263 652.001C187.795 652.361 187.442 652.851 187.205 653.472C186.973 654.087 186.857 654.778 186.857 655.545C186.857 656.322 186.975 657.027 187.212 657.662C187.454 658.292 187.809 658.794 188.278 659.168C188.751 659.537 189.338 659.722 190.039 659.722ZM202.546 661.227C201.561 661.227 200.697 660.993 199.954 660.524C199.215 660.055 198.637 659.4 198.221 658.557C197.809 657.714 197.603 656.729 197.603 655.602C197.603 654.466 197.809 653.474 198.221 652.626C198.637 651.779 199.215 651.121 199.954 650.652C200.697 650.183 201.561 649.949 202.546 649.949C203.531 649.949 204.393 650.183 205.131 650.652C205.875 651.121 206.452 651.779 206.864 652.626C207.281 653.474 207.489 654.466 207.489 655.602C207.489 656.729 207.281 657.714 206.864 658.557C206.452 659.4 205.875 660.055 205.131 660.524C204.393 660.993 203.531 661.227 202.546 661.227ZM202.546 659.722C203.294 659.722 203.91 659.53 204.393 659.146C204.876 658.763 205.233 658.259 205.465 657.634C205.697 657.009 205.813 656.331 205.813 655.602C205.813 654.873 205.697 654.194 205.465 653.564C205.233 652.934 204.876 652.425 204.393 652.037C203.91 651.649 203.294 651.455 202.546 651.455C201.798 651.455 201.182 651.649 200.699 652.037C200.216 652.425 199.859 652.934 199.627 653.564C199.395 654.194 199.279 654.873 199.279 655.602C199.279 656.331 199.395 657.009 199.627 657.634C199.859 658.259 200.216 658.763 200.699 659.146C201.182 659.53 201.798 659.722 202.546 659.722ZM212.548 659.011L212.434 659.778C212.354 660.318 212.231 660.896 212.065 661.511C211.904 662.127 211.736 662.707 211.561 663.251C211.385 663.796 211.241 664.229 211.127 664.551H209.849C209.91 664.248 209.991 663.848 210.09 663.351C210.19 662.854 210.289 662.297 210.389 661.682C210.493 661.071 210.578 660.446 210.644 659.807L210.73 659.011H212.548ZM225.71 661.227C224.725 661.227 223.861 660.993 223.118 660.524C222.379 660.055 221.801 659.4 221.385 658.557C220.973 657.714 220.767 656.729 220.767 655.602C220.767 654.466 220.973 653.474 221.385 652.626C221.801 651.779 222.379 651.121 223.118 650.652C223.861 650.183 224.725 649.949 225.71 649.949C226.695 649.949 227.557 650.183 228.295 650.652C229.039 651.121 229.616 651.779 230.028 652.626C230.445 653.474 230.653 654.466 230.653 655.602C230.653 656.729 230.445 657.714 230.028 658.557C229.616 659.4 229.039 660.055 228.295 660.524C227.557 660.993 226.695 661.227 225.71 661.227ZM225.71 659.722C226.458 659.722 227.074 659.53 227.557 659.146C228.04 658.763 228.397 658.259 228.629 657.634C228.861 657.009 228.977 656.331 228.977 655.602C228.977 654.873 228.861 654.194 228.629 653.564C228.397 652.934 228.04 652.425 227.557 652.037C227.074 651.649 226.458 651.455 225.71 651.455C224.962 651.455 224.346 651.649 223.863 652.037C223.381 652.425 223.023 652.934 222.791 653.564C222.559 654.194 222.443 654.873 222.443 655.602C222.443 656.331 222.559 657.009 222.791 657.634C223.023 658.259 223.381 658.763 223.863 659.146C224.346 659.53 224.962 659.722 225.71 659.722ZM240.087 656.54V650.091H241.763V661H240.087V659.153H239.973C239.718 659.707 239.32 660.179 238.78 660.567C238.24 660.95 237.558 661.142 236.735 661.142C236.053 661.142 235.447 660.993 234.916 660.695C234.386 660.392 233.969 659.937 233.666 659.331C233.363 658.72 233.212 657.951 233.212 657.023V650.091H234.888V656.909C234.888 657.705 235.11 658.339 235.556 658.812C236.005 659.286 236.578 659.523 237.274 659.523C237.691 659.523 238.115 659.416 238.546 659.203C238.981 658.99 239.346 658.663 239.639 658.223C239.938 657.783 240.087 657.222 240.087 656.54ZM253.668 661.256C252.977 661.256 252.349 661.125 251.786 660.865C251.223 660.6 250.775 660.219 250.444 659.722C250.112 659.22 249.947 658.614 249.947 657.903C249.947 657.278 250.07 656.772 250.316 656.384C250.562 655.991 250.891 655.683 251.303 655.46C251.715 655.238 252.17 655.072 252.667 654.963C253.169 654.849 253.673 654.759 254.18 654.693C254.842 654.608 255.38 654.544 255.792 654.501C256.208 654.454 256.511 654.376 256.701 654.267C256.895 654.158 256.992 653.969 256.992 653.699V653.642C256.992 652.941 256.8 652.397 256.417 652.009C256.038 651.62 255.463 651.426 254.691 651.426C253.891 651.426 253.263 651.601 252.809 651.952C252.354 652.302 252.035 652.676 251.85 653.074L250.259 652.506C250.543 651.843 250.922 651.327 251.395 650.957C251.874 650.583 252.394 650.323 252.958 650.176C253.526 650.025 254.085 649.949 254.634 649.949C254.984 649.949 255.387 649.991 255.841 650.077C256.301 650.157 256.743 650.325 257.17 650.581C257.6 650.837 257.958 651.223 258.242 651.739C258.526 652.255 258.668 652.946 258.668 653.812V661H256.992V659.523H256.907C256.793 659.759 256.604 660.013 256.339 660.283C256.073 660.553 255.721 660.782 255.28 660.972C254.84 661.161 254.303 661.256 253.668 661.256ZM253.924 659.75C254.587 659.75 255.145 659.62 255.6 659.359C256.059 659.099 256.405 658.763 256.637 658.351C256.874 657.939 256.992 657.506 256.992 657.051V655.517C256.921 655.602 256.765 655.68 256.523 655.751C256.287 655.818 256.012 655.877 255.699 655.929C255.392 655.976 255.091 656.019 254.797 656.057C254.509 656.09 254.274 656.118 254.094 656.142C253.659 656.199 253.251 656.291 252.873 656.419C252.499 656.542 252.196 656.729 251.964 656.98C251.736 657.226 251.623 657.562 251.623 657.989C251.623 658.571 251.838 659.011 252.269 659.31C252.705 659.603 253.256 659.75 253.924 659.75ZM261.955 661V646.455H263.631V651.824H263.773C263.896 651.634 264.066 651.393 264.284 651.099C264.507 650.801 264.824 650.536 265.236 650.304C265.653 650.067 266.216 649.949 266.926 649.949C267.845 649.949 268.655 650.179 269.355 650.638C270.056 651.097 270.603 651.748 270.996 652.591C271.389 653.434 271.585 654.428 271.585 655.574C271.585 656.729 271.389 657.731 270.996 658.578C270.603 659.421 270.058 660.074 269.362 660.538C268.666 660.998 267.864 661.227 266.955 661.227C266.254 661.227 265.693 661.111 265.271 660.879C264.85 660.643 264.526 660.375 264.298 660.077C264.071 659.774 263.896 659.523 263.773 659.324H263.574V661H261.955ZM263.602 655.545C263.602 656.369 263.723 657.096 263.965 657.726C264.206 658.351 264.559 658.841 265.023 659.196C265.487 659.546 266.055 659.722 266.727 659.722C267.428 659.722 268.013 659.537 268.482 659.168C268.955 658.794 269.31 658.292 269.547 657.662C269.789 657.027 269.909 656.322 269.909 655.545C269.909 654.778 269.791 654.087 269.554 653.472C269.322 652.851 268.969 652.361 268.496 652.001C268.027 651.637 267.438 651.455 266.727 651.455C266.046 651.455 265.473 651.627 265.009 651.973C264.545 652.314 264.194 652.792 263.958 653.408C263.721 654.018 263.602 654.731 263.602 655.545ZM274.149 661V650.091H275.769V651.739H275.882C276.081 651.199 276.441 650.761 276.962 650.425C277.483 650.089 278.07 649.92 278.723 649.92C278.846 649.92 279 649.923 279.185 649.928C279.369 649.932 279.509 649.939 279.604 649.949V651.653C279.547 651.639 279.417 651.618 279.213 651.589C279.014 651.556 278.804 651.54 278.581 651.54C278.051 651.54 277.577 651.651 277.161 651.874C276.749 652.091 276.422 652.394 276.181 652.783C275.944 653.166 275.825 653.604 275.825 654.097V661H274.149ZM284.801 661.256C284.11 661.256 283.482 661.125 282.919 660.865C282.355 660.6 281.908 660.219 281.577 659.722C281.245 659.22 281.079 658.614 281.079 657.903C281.079 657.278 281.202 656.772 281.449 656.384C281.695 655.991 282.024 655.683 282.436 655.46C282.848 655.238 283.302 655.072 283.8 654.963C284.301 654.849 284.806 654.759 285.312 654.693C285.975 654.608 286.513 654.544 286.925 654.501C287.341 654.454 287.644 654.376 287.834 654.267C288.028 654.158 288.125 653.969 288.125 653.699V653.642C288.125 652.941 287.933 652.397 287.55 652.009C287.171 651.62 286.595 651.426 285.824 651.426C285.023 651.426 284.396 651.601 283.942 651.952C283.487 652.302 283.167 652.676 282.983 653.074L281.392 652.506C281.676 651.843 282.055 651.327 282.528 650.957C283.006 650.583 283.527 650.323 284.091 650.176C284.659 650.025 285.218 649.949 285.767 649.949C286.117 649.949 286.52 649.991 286.974 650.077C287.434 650.157 287.876 650.325 288.302 650.581C288.733 650.837 289.091 651.223 289.375 651.739C289.659 652.255 289.801 652.946 289.801 653.812V661H288.125V659.523H288.04C287.926 659.759 287.737 660.013 287.471 660.283C287.206 660.553 286.854 660.782 286.413 660.972C285.973 661.161 285.435 661.256 284.801 661.256ZM285.057 659.75C285.72 659.75 286.278 659.62 286.733 659.359C287.192 659.099 287.538 658.763 287.77 658.351C288.006 657.939 288.125 657.506 288.125 657.051V655.517C288.054 655.602 287.898 655.68 287.656 655.751C287.419 655.818 287.145 655.877 286.832 655.929C286.524 655.976 286.224 656.019 285.93 656.057C285.641 656.09 285.407 656.118 285.227 656.142C284.791 656.199 284.384 656.291 284.006 656.419C283.631 656.542 283.328 656.729 283.096 656.98C282.869 657.226 282.756 657.562 282.756 657.989C282.756 658.571 282.971 659.011 283.402 659.31C283.837 659.603 284.389 659.75 285.057 659.75ZM305.36 656.54V650.091H307.036V661H305.36V659.153H305.247C304.991 659.707 304.593 660.179 304.053 660.567C303.514 660.95 302.832 661.142 302.008 661.142C301.326 661.142 300.72 660.993 300.19 660.695C299.66 660.392 299.243 659.937 298.94 659.331C298.637 658.72 298.485 657.951 298.485 657.023V650.091H300.161V656.909C300.161 657.705 300.384 658.339 300.829 658.812C301.279 659.286 301.852 659.523 302.548 659.523C302.964 659.523 303.388 659.416 303.819 659.203C304.255 658.99 304.619 658.663 304.913 658.223C305.211 657.783 305.36 657.222 305.36 656.54ZM310.106 661V650.091H311.726V651.795H311.868C312.095 651.213 312.462 650.761 312.969 650.439C313.475 650.112 314.084 649.949 314.794 649.949C315.514 649.949 316.113 650.112 316.591 650.439C317.074 650.761 317.45 651.213 317.72 651.795H317.834C318.113 651.232 318.532 650.785 319.091 650.453C319.649 650.117 320.319 649.949 321.101 649.949C322.076 649.949 322.874 650.254 323.494 650.865C324.114 651.471 324.425 652.416 324.425 653.699V661H322.748V653.699C322.748 652.894 322.528 652.319 322.088 651.973C321.648 651.627 321.129 651.455 320.532 651.455C319.765 651.455 319.171 651.687 318.75 652.151C318.328 652.61 318.118 653.192 318.118 653.898V661H316.413V653.528C316.413 652.908 316.212 652.409 315.809 652.03C315.407 651.646 314.889 651.455 314.254 651.455C313.818 651.455 313.411 651.571 313.032 651.803C312.658 652.035 312.355 652.357 312.123 652.768C311.896 653.176 311.782 653.647 311.782 654.182V661H310.106ZM333.114 665.091V650.091H334.733V651.824H334.932C335.055 651.634 335.226 651.393 335.444 651.099C335.666 650.801 335.983 650.536 336.395 650.304C336.812 650.067 337.376 649.949 338.086 649.949C339.004 649.949 339.814 650.179 340.515 650.638C341.215 651.097 341.762 651.748 342.155 652.591C342.548 653.434 342.745 654.428 342.745 655.574C342.745 656.729 342.548 657.731 342.155 658.578C341.762 659.421 341.218 660.074 340.522 660.538C339.826 660.998 339.023 661.227 338.114 661.227C337.413 661.227 336.852 661.111 336.431 660.879C336.01 660.643 335.685 660.375 335.458 660.077C335.231 659.774 335.055 659.523 334.932 659.324H334.79V665.091H333.114ZM334.762 655.545C334.762 656.369 334.883 657.096 335.124 657.726C335.366 658.351 335.718 658.841 336.182 659.196C336.646 659.546 337.215 659.722 337.887 659.722C338.588 659.722 339.172 659.537 339.641 659.168C340.115 658.794 340.47 658.292 340.706 657.662C340.948 657.027 341.069 656.322 341.069 655.545C341.069 654.778 340.95 654.087 340.714 653.472C340.482 652.851 340.129 652.361 339.655 652.001C339.187 651.637 338.597 651.455 337.887 651.455C337.205 651.455 336.632 651.627 336.168 651.973C335.704 652.314 335.354 652.792 335.117 653.408C334.88 654.018 334.762 654.731 334.762 655.545ZM349.876 661.227C348.824 661.227 347.918 660.995 347.155 660.531C346.398 660.062 345.813 659.409 345.401 658.571C344.994 657.728 344.79 656.748 344.79 655.631C344.79 654.513 344.994 653.528 345.401 652.676C345.813 651.819 346.386 651.152 347.12 650.673C347.858 650.19 348.72 649.949 349.705 649.949C350.273 649.949 350.834 650.044 351.388 650.233C351.942 650.422 352.447 650.73 352.901 651.156C353.356 651.578 353.718 652.136 353.988 652.832C354.258 653.528 354.393 654.385 354.393 655.403V656.114H345.983V654.665H352.688C352.688 654.049 352.565 653.5 352.319 653.017C352.077 652.534 351.732 652.153 351.282 651.874C350.837 651.594 350.311 651.455 349.705 651.455C349.037 651.455 348.46 651.62 347.972 651.952C347.489 652.278 347.117 652.705 346.857 653.23C346.597 653.756 346.466 654.319 346.466 654.92V655.886C346.466 656.71 346.608 657.409 346.893 657.982C347.181 658.55 347.581 658.983 348.093 659.281C348.604 659.575 349.198 659.722 349.876 659.722C350.316 659.722 350.714 659.66 351.069 659.537C351.429 659.409 351.739 659.22 351.999 658.969C352.26 658.713 352.461 658.396 352.603 658.017L354.222 658.472C354.052 659.021 353.765 659.504 353.363 659.92C352.96 660.332 352.463 660.654 351.871 660.886C351.279 661.114 350.614 661.227 349.876 661.227ZM361.062 661.227C360.153 661.227 359.35 660.998 358.654 660.538C357.958 660.074 357.413 659.421 357.02 658.578C356.627 657.731 356.431 656.729 356.431 655.574C356.431 654.428 356.627 653.434 357.02 652.591C357.413 651.748 357.96 651.097 358.661 650.638C359.362 650.179 360.171 649.949 361.09 649.949C361.8 649.949 362.361 650.067 362.773 650.304C363.19 650.536 363.507 650.801 363.725 651.099C363.948 651.393 364.12 651.634 364.243 651.824H364.385V646.455H366.062V661H364.442V659.324H364.243C364.12 659.523 363.945 659.774 363.718 660.077C363.491 660.375 363.166 660.643 362.745 660.879C362.323 661.111 361.762 661.227 361.062 661.227ZM361.289 659.722C361.961 659.722 362.529 659.546 362.993 659.196C363.457 658.841 363.81 658.351 364.052 657.726C364.293 657.096 364.414 656.369 364.414 655.545C364.414 654.731 364.296 654.018 364.059 653.408C363.822 652.792 363.472 652.314 363.008 651.973C362.544 651.627 361.971 651.455 361.289 651.455C360.579 651.455 359.987 651.637 359.513 652.001C359.045 652.361 358.692 652.851 358.455 653.472C358.223 654.087 358.107 654.778 358.107 655.545C358.107 656.322 358.225 657.027 358.462 657.662C358.704 658.292 359.059 658.794 359.528 659.168C360.001 659.537 360.588 659.722 361.289 659.722ZM369.364 661V650.091H371.04V661H369.364ZM370.216 648.273C369.89 648.273 369.608 648.161 369.371 647.939C369.139 647.716 369.023 647.449 369.023 647.136C369.023 646.824 369.139 646.556 369.371 646.334C369.608 646.111 369.89 646 370.216 646C370.543 646 370.823 646.111 371.055 646.334C371.291 646.556 371.41 646.824 371.41 647.136C371.41 647.449 371.291 647.716 371.055 647.939C370.823 648.161 370.543 648.273 370.216 648.273ZM378.23 661.227C377.32 661.227 376.518 660.998 375.822 660.538C375.126 660.074 374.581 659.421 374.188 658.578C373.795 657.731 373.599 656.729 373.599 655.574C373.599 654.428 373.795 653.434 374.188 652.591C374.581 651.748 375.128 651.097 375.829 650.638C376.53 650.179 377.339 649.949 378.258 649.949C378.968 649.949 379.529 650.067 379.941 650.304C380.358 650.536 380.675 650.801 380.893 651.099C381.115 651.393 381.288 651.634 381.411 651.824H381.553V646.455H383.23V661H381.61V659.324H381.411C381.288 659.523 381.113 659.774 380.886 660.077C380.659 660.375 380.334 660.643 379.913 660.879C379.491 661.111 378.93 661.227 378.23 661.227ZM378.457 659.722C379.129 659.722 379.697 659.546 380.161 659.196C380.625 658.841 380.978 658.351 381.22 657.726C381.461 657.096 381.582 656.369 381.582 655.545C381.582 654.731 381.463 654.018 381.227 653.408C380.99 652.792 380.64 652.314 380.176 651.973C379.712 651.627 379.139 651.455 378.457 651.455C377.747 651.455 377.155 651.637 376.681 652.001C376.213 652.361 375.86 652.851 375.623 653.472C375.391 654.087 375.275 654.778 375.275 655.545C375.275 656.322 375.393 657.027 375.63 657.662C375.872 658.292 376.227 658.794 376.695 659.168C377.169 659.537 377.756 659.722 378.457 659.722ZM390.964 661.227C389.979 661.227 389.115 660.993 388.372 660.524C387.633 660.055 387.055 659.4 386.639 658.557C386.227 657.714 386.021 656.729 386.021 655.602C386.021 654.466 386.227 653.474 386.639 652.626C387.055 651.779 387.633 651.121 388.372 650.652C389.115 650.183 389.979 649.949 390.964 649.949C391.949 649.949 392.811 650.183 393.549 650.652C394.293 651.121 394.87 651.779 395.282 652.626C395.699 653.474 395.907 654.466 395.907 655.602C395.907 656.729 395.699 657.714 395.282 658.557C394.87 659.4 394.293 660.055 393.549 660.524C392.811 660.993 391.949 661.227 390.964 661.227ZM390.964 659.722C391.712 659.722 392.328 659.53 392.811 659.146C393.294 658.763 393.651 658.259 393.883 657.634C394.115 657.009 394.231 656.331 394.231 655.602C394.231 654.873 394.115 654.194 393.883 653.564C393.651 652.934 393.294 652.425 392.811 652.037C392.328 651.649 391.712 651.455 390.964 651.455C390.216 651.455 389.6 651.649 389.117 652.037C388.634 652.425 388.277 652.934 388.045 653.564C387.813 654.194 387.697 654.873 387.697 655.602C387.697 656.331 387.813 657.009 388.045 657.634C388.277 658.259 388.634 658.763 389.117 659.146C389.6 659.53 390.216 659.722 390.964 659.722ZM66.7798 685.227C65.7287 685.227 64.822 684.995 64.0597 684.531C63.3021 684.062 62.7173 683.409 62.3054 682.571C61.8982 681.728 61.6946 680.748 61.6946 679.631C61.6946 678.513 61.8982 677.528 62.3054 676.676C62.7173 675.819 63.2902 675.152 64.0241 674.673C64.7628 674.19 65.6245 673.949 66.6094 673.949C67.1776 673.949 67.7386 674.044 68.2926 674.233C68.8466 674.422 69.3509 674.73 69.8054 675.156C70.2599 675.578 70.6222 676.136 70.892 676.832C71.1619 677.528 71.2969 678.385 71.2969 679.403V680.114H62.8878V678.665H69.5923C69.5923 678.049 69.4692 677.5 69.223 677.017C68.9815 676.534 68.6359 676.153 68.1861 675.874C67.741 675.594 67.2154 675.455 66.6094 675.455C65.9418 675.455 65.3641 675.62 64.8764 675.952C64.3935 676.278 64.0218 676.705 63.7614 677.23C63.5009 677.756 63.3707 678.319 63.3707 678.92V679.886C63.3707 680.71 63.5128 681.409 63.7969 681.982C64.0857 682.55 64.4858 682.983 64.9972 683.281C65.5085 683.575 66.1027 683.722 66.7798 683.722C67.2202 683.722 67.6179 683.66 67.973 683.537C68.3329 683.409 68.643 683.22 68.9034 682.969C69.1638 682.713 69.3651 682.396 69.5071 682.017L71.1264 682.472C70.956 683.021 70.6695 683.504 70.267 683.92C69.8646 684.332 69.3674 684.654 68.7756 684.886C68.1837 685.114 67.5185 685.227 66.7798 685.227ZM74.8036 674.091L77.4173 678.551L80.0309 674.091H81.9627L78.44 679.545L81.9627 685H80.0309L77.4173 680.767L74.8036 685H72.8718L76.3377 679.545L72.8718 674.091H74.8036ZM84.3544 685V674.091H86.0305V685H84.3544ZM85.2067 672.273C84.88 672.273 84.5982 672.161 84.3615 671.939C84.1295 671.716 84.0135 671.449 84.0135 671.136C84.0135 670.824 84.1295 670.556 84.3615 670.334C84.5982 670.111 84.88 670 85.2067 670C85.5334 670 85.8127 670.111 86.0447 670.334C86.2815 670.556 86.3999 670.824 86.3999 671.136C86.3999 671.449 86.2815 671.716 86.0447 671.939C85.8127 672.161 85.5334 672.273 85.2067 672.273ZM96.8278 676.534L95.3221 676.96C95.2274 676.709 95.0877 676.465 94.9031 676.229C94.7231 675.987 94.4769 675.788 94.1644 675.632C93.8519 675.476 93.4518 675.398 92.9641 675.398C92.2965 675.398 91.7402 675.552 91.2951 675.859C90.8548 676.162 90.6346 676.548 90.6346 677.017C90.6346 677.434 90.7861 677.763 91.0891 678.004C91.3922 678.246 91.8656 678.447 92.5096 678.608L94.1289 679.006C95.1043 679.242 95.8311 679.605 96.3093 680.092C96.7875 680.575 97.0266 681.198 97.0266 681.96C97.0266 682.585 96.8467 683.144 96.4869 683.636C96.1317 684.129 95.6346 684.517 94.9954 684.801C94.3562 685.085 93.6128 685.227 92.7653 685.227C91.6526 685.227 90.7317 684.986 90.0025 684.503C89.2733 684.02 88.8117 683.314 88.6175 682.386L90.2085 681.989C90.36 682.576 90.6464 683.016 91.0678 683.31C91.494 683.603 92.0503 683.75 92.7369 683.75C93.5181 683.75 94.1384 683.584 94.5977 683.253C95.0617 682.917 95.2937 682.514 95.2937 682.045C95.2937 681.667 95.1611 681.349 94.896 681.094C94.6308 680.833 94.2236 680.639 93.6744 680.511L91.8562 680.085C90.8571 679.848 90.1232 679.482 89.6545 678.984C89.1905 678.482 88.9585 677.855 88.9585 677.102C88.9585 676.487 89.1313 675.942 89.4769 675.469C89.8273 674.995 90.3031 674.624 90.9045 674.354C91.5105 674.084 92.1971 673.949 92.9641 673.949C94.0437 673.949 94.8912 674.186 95.5067 674.659C96.127 675.133 96.5674 675.758 96.8278 676.534ZM104.294 674.091V675.511H98.6406V674.091H104.294ZM100.288 671.477H101.964V681.875C101.964 682.348 102.033 682.704 102.17 682.94C102.313 683.172 102.492 683.329 102.71 683.409C102.933 683.485 103.167 683.523 103.413 683.523C103.598 683.523 103.75 683.513 103.868 683.494C103.986 683.471 104.081 683.452 104.152 683.438L104.493 684.943C104.379 684.986 104.221 685.028 104.017 685.071C103.813 685.118 103.555 685.142 103.243 685.142C102.769 685.142 102.305 685.04 101.851 684.837C101.401 684.633 101.027 684.323 100.729 683.906C100.435 683.49 100.288 682.964 100.288 682.33V671.477ZM111.272 685.227C110.221 685.227 109.314 684.995 108.552 684.531C107.794 684.062 107.21 683.409 106.798 682.571C106.39 681.728 106.187 680.748 106.187 679.631C106.187 678.513 106.39 677.528 106.798 676.676C107.21 675.819 107.782 675.152 108.516 674.673C109.255 674.19 110.117 673.949 111.102 673.949C111.67 673.949 112.231 674.044 112.785 674.233C113.339 674.422 113.843 674.73 114.298 675.156C114.752 675.578 115.114 676.136 115.384 676.832C115.654 677.528 115.789 678.385 115.789 679.403V680.114H107.38V678.665H114.085C114.085 678.049 113.961 677.5 113.715 677.017C113.474 676.534 113.128 676.153 112.678 675.874C112.233 675.594 111.708 675.455 111.102 675.455C110.434 675.455 109.856 675.62 109.369 675.952C108.886 676.278 108.514 676.705 108.254 677.23C107.993 677.756 107.863 678.319 107.863 678.92V679.886C107.863 680.71 108.005 681.409 108.289 681.982C108.578 682.55 108.978 682.983 109.489 683.281C110.001 683.575 110.595 683.722 111.272 683.722C111.712 683.722 112.11 683.66 112.465 683.537C112.825 683.409 113.135 683.22 113.396 682.969C113.656 682.713 113.857 682.396 113.999 682.017L115.619 682.472C115.448 683.021 115.162 683.504 114.759 683.92C114.357 684.332 113.86 684.654 113.268 684.886C112.676 685.114 112.011 685.227 111.272 685.227ZM120.015 678.438V685H118.339V674.091H119.958V675.795H120.1C120.356 675.241 120.744 674.796 121.265 674.46C121.786 674.119 122.458 673.949 123.282 673.949C124.021 673.949 124.667 674.1 125.221 674.403C125.775 674.702 126.206 675.156 126.513 675.767C126.821 676.373 126.975 677.14 126.975 678.068V685H125.299V678.182C125.299 677.325 125.076 676.657 124.631 676.179C124.186 675.696 123.576 675.455 122.799 675.455C122.264 675.455 121.786 675.571 121.364 675.803C120.948 676.035 120.619 676.373 120.377 676.818C120.136 677.263 120.015 677.803 120.015 678.438ZM134.782 674.091V675.511H129.129V674.091H134.782ZM130.777 671.477H132.453V681.875C132.453 682.348 132.521 682.704 132.659 682.94C132.801 683.172 132.981 683.329 133.199 683.409C133.421 683.485 133.655 683.523 133.902 683.523C134.086 683.523 134.238 683.513 134.356 683.494C134.475 683.471 134.569 683.452 134.64 683.438L134.981 684.943C134.868 684.986 134.709 685.028 134.505 685.071C134.302 685.118 134.044 685.142 133.731 685.142C133.258 685.142 132.794 685.04 132.339 684.837C131.889 684.633 131.515 684.323 131.217 683.906C130.923 683.49 130.777 682.964 130.777 682.33V671.477ZM141.76 685.227C140.709 685.227 139.802 684.995 139.04 684.531C138.283 684.062 137.698 683.409 137.286 682.571C136.879 681.728 136.675 680.748 136.675 679.631C136.675 678.513 136.879 677.528 137.286 676.676C137.698 675.819 138.271 675.152 139.005 674.673C139.743 674.19 140.605 673.949 141.59 673.949C142.158 673.949 142.719 674.044 143.273 674.233C143.827 674.422 144.331 674.73 144.786 675.156C145.24 675.578 145.603 676.136 145.873 676.832C146.142 677.528 146.277 678.385 146.277 679.403V680.114H137.868V678.665H144.573C144.573 678.049 144.45 677.5 144.203 677.017C143.962 676.534 143.616 676.153 143.167 675.874C142.721 675.594 142.196 675.455 141.59 675.455C140.922 675.455 140.345 675.62 139.857 675.952C139.374 676.278 139.002 676.705 138.742 677.23C138.481 677.756 138.351 678.319 138.351 678.92V679.886C138.351 680.71 138.493 681.409 138.777 681.982C139.066 682.55 139.466 682.983 139.978 683.281C140.489 683.575 141.083 683.722 141.76 683.722C142.201 683.722 142.598 683.66 142.953 683.537C143.313 683.409 143.623 683.22 143.884 682.969C144.144 682.713 144.346 682.396 144.488 682.017L146.107 682.472C145.936 683.021 145.65 683.504 145.248 683.92C144.845 684.332 144.348 684.654 143.756 684.886C143.164 685.114 142.499 685.227 141.76 685.227ZM154.452 689.091V674.091H156.071V675.824H156.27C156.393 675.634 156.564 675.393 156.782 675.099C157.004 674.801 157.321 674.536 157.733 674.304C158.15 674.067 158.713 673.949 159.424 673.949C160.342 673.949 161.152 674.179 161.853 674.638C162.553 675.097 163.1 675.748 163.493 676.591C163.886 677.434 164.083 678.428 164.083 679.574C164.083 680.729 163.886 681.731 163.493 682.578C163.1 683.421 162.556 684.074 161.86 684.538C161.164 684.998 160.361 685.227 159.452 685.227C158.751 685.227 158.19 685.111 157.769 684.879C157.347 684.643 157.023 684.375 156.796 684.077C156.569 683.774 156.393 683.523 156.27 683.324H156.128V689.091H154.452ZM156.1 679.545C156.1 680.369 156.221 681.096 156.462 681.726C156.703 682.351 157.056 682.841 157.52 683.196C157.984 683.546 158.552 683.722 159.225 683.722C159.926 683.722 160.51 683.537 160.979 683.168C161.453 682.794 161.808 682.292 162.044 681.662C162.286 681.027 162.407 680.322 162.407 679.545C162.407 678.778 162.288 678.087 162.051 677.472C161.819 676.851 161.467 676.361 160.993 676.001C160.525 675.637 159.935 675.455 159.225 675.455C158.543 675.455 157.97 675.627 157.506 675.973C157.042 676.314 156.692 676.792 156.455 677.408C156.218 678.018 156.1 678.731 156.1 679.545ZM169.85 685.256C169.158 685.256 168.531 685.125 167.968 684.865C167.404 684.6 166.957 684.219 166.625 683.722C166.294 683.22 166.128 682.614 166.128 681.903C166.128 681.278 166.251 680.772 166.498 680.384C166.744 679.991 167.073 679.683 167.485 679.46C167.897 679.238 168.351 679.072 168.848 678.963C169.35 678.849 169.855 678.759 170.361 678.693C171.024 678.608 171.561 678.544 171.973 678.501C172.39 678.454 172.693 678.376 172.882 678.267C173.077 678.158 173.174 677.969 173.174 677.699V677.642C173.174 676.941 172.982 676.397 172.598 676.009C172.22 675.62 171.644 675.426 170.873 675.426C170.072 675.426 169.445 675.601 168.99 675.952C168.536 676.302 168.216 676.676 168.032 677.074L166.441 676.506C166.725 675.843 167.104 675.327 167.577 674.957C168.055 674.583 168.576 674.323 169.14 674.176C169.708 674.025 170.266 673.949 170.816 673.949C171.166 673.949 171.569 673.991 172.023 674.077C172.482 674.157 172.925 674.325 173.351 674.581C173.782 674.837 174.14 675.223 174.424 675.739C174.708 676.255 174.85 676.946 174.85 677.812V685H173.174V683.523H173.088C172.975 683.759 172.785 684.013 172.52 684.283C172.255 684.553 171.902 684.782 171.462 684.972C171.022 685.161 170.484 685.256 169.85 685.256ZM170.105 683.75C170.768 683.75 171.327 683.62 171.782 683.359C172.241 683.099 172.587 682.763 172.819 682.351C173.055 681.939 173.174 681.506 173.174 681.051V679.517C173.103 679.602 172.946 679.68 172.705 679.751C172.468 679.818 172.194 679.877 171.881 679.929C171.573 679.976 171.273 680.019 170.979 680.057C170.69 680.09 170.456 680.118 170.276 680.142C169.84 680.199 169.433 680.291 169.054 680.419C168.68 680.542 168.377 680.729 168.145 680.98C167.918 681.226 167.804 681.562 167.804 681.989C167.804 682.571 168.02 683.011 168.451 683.31C168.886 683.603 169.438 683.75 170.105 683.75ZM177.909 685V674.091H179.528V675.739H179.642C179.841 675.199 180.201 674.761 180.722 674.425C181.242 674.089 181.83 673.92 182.483 673.92C182.606 673.92 182.76 673.923 182.945 673.928C183.129 673.932 183.269 673.939 183.364 673.949V675.653C183.307 675.639 183.177 675.618 182.973 675.589C182.774 675.556 182.563 675.54 182.341 675.54C181.811 675.54 181.337 675.651 180.92 675.874C180.509 676.091 180.182 676.394 179.94 676.783C179.704 677.166 179.585 677.604 179.585 678.097V685H177.909ZM188.561 685.256C187.869 685.256 187.242 685.125 186.679 684.865C186.115 684.6 185.668 684.219 185.336 683.722C185.005 683.22 184.839 682.614 184.839 681.903C184.839 681.278 184.962 680.772 185.208 680.384C185.455 679.991 185.784 679.683 186.196 679.46C186.608 679.238 187.062 679.072 187.559 678.963C188.061 678.849 188.565 678.759 189.072 678.693C189.735 678.608 190.272 678.544 190.684 678.501C191.101 678.454 191.404 678.376 191.593 678.267C191.788 678.158 191.885 677.969 191.885 677.699V677.642C191.885 676.941 191.693 676.397 191.309 676.009C190.931 675.62 190.355 675.426 189.583 675.426C188.783 675.426 188.156 675.601 187.701 675.952C187.247 676.302 186.927 676.676 186.743 677.074L185.152 676.506C185.436 675.843 185.815 675.327 186.288 674.957C186.766 674.583 187.287 674.323 187.85 674.176C188.419 674.025 188.977 673.949 189.527 673.949C189.877 673.949 190.279 673.991 190.734 674.077C191.193 674.157 191.636 674.325 192.062 674.581C192.493 674.837 192.85 675.223 193.135 675.739C193.419 676.255 193.561 676.946 193.561 677.812V685H191.885V683.523H191.799C191.686 683.759 191.496 684.013 191.231 684.283C190.966 684.553 190.613 684.782 190.173 684.972C189.733 685.161 189.195 685.256 188.561 685.256ZM188.816 683.75C189.479 683.75 190.038 683.62 190.493 683.359C190.952 683.099 191.297 682.763 191.529 682.351C191.766 681.939 191.885 681.506 191.885 681.051V679.517C191.814 679.602 191.657 679.68 191.416 679.751C191.179 679.818 190.904 679.877 190.592 679.929C190.284 679.976 189.984 680.019 189.69 680.057C189.401 680.09 189.167 680.118 188.987 680.142C188.551 680.199 188.144 680.291 187.765 680.419C187.391 680.542 187.088 680.729 186.856 680.98C186.629 681.226 186.515 681.562 186.515 681.989C186.515 682.571 186.731 683.011 187.162 683.31C187.597 683.603 188.149 683.75 188.816 683.75ZM211.165 674.091L207.131 685H205.427L201.393 674.091H203.211L206.222 682.784H206.336L209.347 674.091H211.165ZM217.561 685.227C216.51 685.227 215.603 684.995 214.841 684.531C214.083 684.062 213.499 683.409 213.087 682.571C212.679 681.728 212.476 680.748 212.476 679.631C212.476 678.513 212.679 677.528 213.087 676.676C213.499 675.819 214.071 675.152 214.805 674.673C215.544 674.19 216.406 673.949 217.391 673.949C217.959 673.949 218.52 674.044 219.074 674.233C219.628 674.422 220.132 674.73 220.587 675.156C221.041 675.578 221.403 676.136 221.673 676.832C221.943 677.528 222.078 678.385 222.078 679.403V680.114H213.669V678.665H220.374C220.374 678.049 220.25 677.5 220.004 677.017C219.763 676.534 219.417 676.153 218.967 675.874C218.522 675.594 217.997 675.455 217.391 675.455C216.723 675.455 216.145 675.62 215.658 675.952C215.175 676.278 214.803 676.705 214.543 677.23C214.282 677.756 214.152 678.319 214.152 678.92V679.886C214.152 680.71 214.294 681.409 214.578 681.982C214.867 682.55 215.267 682.983 215.778 683.281C216.29 683.575 216.884 683.722 217.561 683.722C218.001 683.722 218.399 683.66 218.754 683.537C219.114 683.409 219.424 683.22 219.685 682.969C219.945 682.713 220.146 682.396 220.288 682.017L221.908 682.472C221.737 683.021 221.451 683.504 221.048 683.92C220.646 684.332 220.149 684.654 219.557 684.886C218.965 685.114 218.3 685.227 217.561 685.227ZM224.628 685V674.091H226.247V675.739H226.361C226.56 675.199 226.92 674.761 227.44 674.425C227.961 674.089 228.548 673.92 229.202 673.92C229.325 673.92 229.479 673.923 229.663 673.928C229.848 673.932 229.988 673.939 230.082 673.949V675.653C230.026 675.639 229.895 675.618 229.692 675.589C229.493 675.556 229.282 675.54 229.06 675.54C228.529 675.54 228.056 675.651 227.639 675.874C227.227 676.091 226.901 676.394 226.659 676.783C226.422 677.166 226.304 677.604 226.304 678.097V685H224.628ZM240.904 685.256C240.213 685.256 239.586 685.125 239.022 684.865C238.459 684.6 238.011 684.219 237.68 683.722C237.349 683.22 237.183 682.614 237.183 681.903C237.183 681.278 237.306 680.772 237.552 680.384C237.798 679.991 238.127 679.683 238.539 679.46C238.951 679.238 239.406 679.072 239.903 678.963C240.405 678.849 240.909 678.759 241.416 678.693C242.079 678.608 242.616 678.544 243.028 678.501C243.445 678.454 243.748 678.376 243.937 678.267C244.131 678.158 244.228 677.969 244.228 677.699V677.642C244.228 676.941 244.037 676.397 243.653 676.009C243.274 675.62 242.699 675.426 241.927 675.426C241.127 675.426 240.5 675.601 240.045 675.952C239.591 676.302 239.271 676.676 239.086 677.074L237.495 676.506C237.779 675.843 238.158 675.327 238.632 674.957C239.11 674.583 239.631 674.323 240.194 674.176C240.762 674.025 241.321 673.949 241.87 673.949C242.221 673.949 242.623 673.991 243.078 674.077C243.537 674.157 243.98 674.325 244.406 674.581C244.837 674.837 245.194 675.223 245.478 675.739C245.762 676.255 245.904 676.946 245.904 677.812V685H244.228V683.523H244.143C244.029 683.759 243.84 684.013 243.575 684.283C243.31 684.553 242.957 684.782 242.517 684.972C242.076 685.161 241.539 685.256 240.904 685.256ZM241.16 683.75C241.823 683.75 242.382 683.62 242.836 683.359C243.296 683.099 243.641 682.763 243.873 682.351C244.11 681.939 244.228 681.506 244.228 681.051V679.517C244.157 679.602 244.001 679.68 243.76 679.751C243.523 679.818 243.248 679.877 242.936 679.929C242.628 679.976 242.327 680.019 242.034 680.057C241.745 680.09 241.511 680.118 241.331 680.142C240.895 680.199 240.488 680.291 240.109 680.419C239.735 680.542 239.432 680.729 239.2 680.98C238.973 681.226 238.859 681.562 238.859 681.989C238.859 682.571 239.074 683.011 239.505 683.31C239.941 683.603 240.493 683.75 241.16 683.75ZM256.691 676.534L255.185 676.96C255.091 676.709 254.951 676.465 254.766 676.229C254.586 675.987 254.34 675.788 254.028 675.632C253.715 675.476 253.315 675.398 252.827 675.398C252.16 675.398 251.603 675.552 251.158 675.859C250.718 676.162 250.498 676.548 250.498 677.017C250.498 677.434 250.649 677.763 250.952 678.004C251.255 678.246 251.729 678.447 252.373 678.608L253.992 679.006C254.968 679.242 255.694 679.605 256.173 680.092C256.651 680.575 256.89 681.198 256.89 681.96C256.89 682.585 256.71 683.144 256.35 683.636C255.995 684.129 255.498 684.517 254.859 684.801C254.219 685.085 253.476 685.227 252.629 685.227C251.516 685.227 250.595 684.986 249.866 684.503C249.137 684.02 248.675 683.314 248.481 682.386L250.072 681.989C250.223 682.576 250.51 683.016 250.931 683.31C251.357 683.603 251.914 683.75 252.6 683.75C253.381 683.75 254.002 683.584 254.461 683.253C254.925 682.917 255.157 682.514 255.157 682.045C255.157 681.667 255.024 681.349 254.759 681.094C254.494 680.833 254.087 680.639 253.538 680.511L251.719 680.085C250.72 679.848 249.987 679.482 249.518 678.984C249.054 678.482 248.822 677.855 248.822 677.102C248.822 676.487 248.995 675.942 249.34 675.469C249.691 674.995 250.166 674.624 250.768 674.354C251.374 674.084 252.06 673.949 252.827 673.949C253.907 673.949 254.754 674.186 255.37 674.659C255.99 675.133 256.431 675.758 256.691 676.534ZM269.47 685.227C268.485 685.227 267.621 684.993 266.877 684.524C266.139 684.055 265.561 683.4 265.145 682.557C264.733 681.714 264.527 680.729 264.527 679.602C264.527 678.466 264.733 677.474 265.145 676.626C265.561 675.779 266.139 675.121 266.877 674.652C267.621 674.183 268.485 673.949 269.47 673.949C270.455 673.949 271.316 674.183 272.055 674.652C272.798 675.121 273.376 675.779 273.788 676.626C274.205 677.474 274.413 678.466 274.413 679.602C274.413 680.729 274.205 681.714 273.788 682.557C273.376 683.4 272.798 684.055 272.055 684.524C271.316 684.993 270.455 685.227 269.47 685.227ZM269.47 683.722C270.218 683.722 270.833 683.53 271.316 683.146C271.799 682.763 272.157 682.259 272.389 681.634C272.621 681.009 272.737 680.331 272.737 679.602C272.737 678.873 272.621 678.194 272.389 677.564C272.157 676.934 271.799 676.425 271.316 676.037C270.833 675.649 270.218 675.455 269.47 675.455C268.722 675.455 268.106 675.649 267.623 676.037C267.14 676.425 266.783 676.934 266.551 677.564C266.319 678.194 266.203 678.873 266.203 679.602C266.203 680.331 266.319 681.009 266.551 681.634C266.783 682.259 267.14 682.763 267.623 683.146C268.106 683.53 268.722 683.722 269.47 683.722ZM276.972 689.091V674.091H278.591V675.824H278.79C278.913 675.634 279.083 675.393 279.301 675.099C279.524 674.801 279.841 674.536 280.253 674.304C280.67 674.067 281.233 673.949 281.943 673.949C282.862 673.949 283.671 674.179 284.372 674.638C285.073 675.097 285.62 675.748 286.013 676.591C286.406 677.434 286.602 678.428 286.602 679.574C286.602 680.729 286.406 681.731 286.013 682.578C285.62 683.421 285.075 684.074 284.379 684.538C283.683 684.998 282.881 685.227 281.972 685.227C281.271 685.227 280.71 685.111 280.288 684.879C279.867 684.643 279.543 684.375 279.315 684.077C279.088 683.774 278.913 683.523 278.79 683.324H278.648V689.091H276.972ZM278.619 679.545C278.619 680.369 278.74 681.096 278.982 681.726C279.223 682.351 279.576 682.841 280.04 683.196C280.504 683.546 281.072 683.722 281.744 683.722C282.445 683.722 283.03 683.537 283.499 683.168C283.972 682.794 284.327 682.292 284.564 681.662C284.805 681.027 284.926 680.322 284.926 679.545C284.926 678.778 284.808 678.087 284.571 677.472C284.339 676.851 283.986 676.361 283.513 676.001C283.044 675.637 282.455 675.455 281.744 675.455C281.063 675.455 280.49 675.627 280.026 675.973C279.562 676.314 279.211 676.792 278.974 677.408C278.738 678.018 278.619 678.731 278.619 679.545ZM293.591 685.227C292.568 685.227 291.688 684.986 290.949 684.503C290.21 684.02 289.642 683.355 289.244 682.507C288.847 681.66 288.648 680.691 288.648 679.602C288.648 678.494 288.851 677.517 289.259 676.669C289.67 675.817 290.243 675.152 290.977 674.673C291.716 674.19 292.578 673.949 293.562 673.949C294.33 673.949 295.021 674.091 295.636 674.375C296.252 674.659 296.756 675.057 297.149 675.568C297.542 676.08 297.786 676.676 297.881 677.358H296.205C296.077 676.861 295.793 676.42 295.352 676.037C294.917 675.649 294.33 675.455 293.591 675.455C292.938 675.455 292.365 675.625 291.872 675.966C291.384 676.302 291.003 676.778 290.729 677.393C290.459 678.004 290.324 678.722 290.324 679.545C290.324 680.388 290.456 681.122 290.722 681.747C290.991 682.372 291.37 682.857 291.858 683.203C292.35 683.549 292.928 683.722 293.591 683.722C294.027 683.722 294.422 683.646 294.777 683.494C295.132 683.343 295.433 683.125 295.679 682.841C295.925 682.557 296.1 682.216 296.205 681.818H297.881C297.786 682.462 297.552 683.042 297.178 683.558C296.808 684.07 296.318 684.477 295.707 684.78C295.101 685.078 294.396 685.227 293.591 685.227ZM292.795 684.943H294.188L294.074 685.511C294.443 685.568 294.782 685.722 295.089 685.973C295.397 686.229 295.551 686.634 295.551 687.188C295.551 687.798 295.298 688.295 294.791 688.679C294.289 689.067 293.548 689.261 292.568 689.261L292.511 688.153C292.952 688.153 293.316 688.082 293.605 687.94C293.899 687.803 294.045 687.571 294.045 687.244C294.045 686.918 293.925 686.695 293.683 686.577C293.442 686.458 293.051 686.378 292.511 686.335L292.795 684.943ZM304.763 685.227C303.778 685.227 302.914 684.993 302.17 684.524C301.432 684.055 300.854 683.4 300.438 682.557C300.026 681.714 299.82 680.729 299.82 679.602C299.82 678.466 300.026 677.474 300.438 676.626C300.854 675.779 301.432 675.121 302.17 674.652C302.914 674.183 303.778 673.949 304.763 673.949C305.748 673.949 306.609 674.183 307.348 674.652C308.091 675.121 308.669 675.779 309.081 676.626C309.498 677.474 309.706 678.466 309.706 679.602C309.706 680.729 309.498 681.714 309.081 682.557C308.669 683.4 308.091 684.055 307.348 684.524C306.609 684.993 305.748 685.227 304.763 685.227ZM304.763 683.722C305.511 683.722 306.126 683.53 306.609 683.146C307.092 682.763 307.45 682.259 307.682 681.634C307.914 681.009 308.03 680.331 308.03 679.602C308.03 678.873 307.914 678.194 307.682 677.564C307.45 676.934 307.092 676.425 306.609 676.037C306.126 675.649 305.511 675.455 304.763 675.455C304.015 675.455 303.399 675.649 302.916 676.037C302.433 676.425 302.076 676.934 301.844 677.564C301.612 678.194 301.496 678.873 301.496 679.602C301.496 680.331 301.612 681.009 301.844 681.634C302.076 682.259 302.433 682.763 302.916 683.146C303.399 683.53 304.015 683.722 304.763 683.722ZM302.575 672.784L301.268 672.727C301.268 672.003 301.474 671.411 301.886 670.952C302.303 670.488 302.817 670.256 303.428 670.256C303.697 670.256 303.937 670.303 304.145 670.398C304.353 670.488 304.552 670.592 304.741 670.71C304.931 670.829 305.125 670.935 305.324 671.03C305.527 671.12 305.757 671.165 306.013 671.165C306.283 671.165 306.51 671.061 306.695 670.852C306.884 670.639 306.979 670.384 306.979 670.085L308.257 670.199C308.257 670.937 308.049 671.525 307.632 671.96C307.22 672.396 306.709 672.614 306.098 672.614C305.771 672.614 305.501 672.569 305.288 672.479C305.075 672.384 304.886 672.277 304.72 672.159C304.554 672.041 304.379 671.937 304.195 671.847C304.01 671.752 303.783 671.705 303.513 671.705C303.243 671.705 303.018 671.811 302.838 672.024C302.663 672.232 302.575 672.486 302.575 672.784ZM316.838 685.227C315.787 685.227 314.881 684.995 314.118 684.531C313.361 684.062 312.776 683.409 312.364 682.571C311.957 681.728 311.753 680.748 311.753 679.631C311.753 678.513 311.957 677.528 312.364 676.676C312.776 675.819 313.349 675.152 314.083 674.673C314.821 674.19 315.683 673.949 316.668 673.949C317.236 673.949 317.797 674.044 318.351 674.233C318.905 674.422 319.409 674.73 319.864 675.156C320.319 675.578 320.681 676.136 320.951 676.832C321.221 677.528 321.355 678.385 321.355 679.403V680.114H312.946V678.665H319.651C319.651 678.049 319.528 677.5 319.282 677.017C319.04 676.534 318.694 676.153 318.245 675.874C317.8 675.594 317.274 675.455 316.668 675.455C316 675.455 315.423 675.62 314.935 675.952C314.452 676.278 314.08 676.705 313.82 677.23C313.56 677.756 313.429 678.319 313.429 678.92V679.886C313.429 680.71 313.571 681.409 313.855 681.982C314.144 682.55 314.544 682.983 315.056 683.281C315.567 683.575 316.161 683.722 316.838 683.722C317.279 683.722 317.676 683.66 318.032 683.537C318.391 683.409 318.702 683.22 318.962 682.969C319.222 682.713 319.424 682.396 319.566 682.017L321.185 682.472C321.015 683.021 320.728 683.504 320.326 683.92C319.923 684.332 319.426 684.654 318.834 684.886C318.242 685.114 317.577 685.227 316.838 685.227ZM331.632 676.534L330.127 676.96C330.032 676.709 329.892 676.465 329.708 676.229C329.528 675.987 329.282 675.788 328.969 675.632C328.657 675.476 328.257 675.398 327.769 675.398C327.101 675.398 326.545 675.552 326.1 675.859C325.659 676.162 325.439 676.548 325.439 677.017C325.439 677.434 325.591 677.763 325.894 678.004C326.197 678.246 326.67 678.447 327.314 678.608L328.934 679.006C329.909 679.242 330.636 679.605 331.114 680.092C331.592 680.575 331.831 681.198 331.831 681.96C331.831 682.585 331.651 683.144 331.292 683.636C330.936 684.129 330.439 684.517 329.8 684.801C329.161 685.085 328.417 685.227 327.57 685.227C326.457 685.227 325.536 684.986 324.807 684.503C324.078 684.02 323.616 683.314 323.422 682.386L325.013 681.989C325.165 682.576 325.451 683.016 325.873 683.31C326.299 683.603 326.855 683.75 327.542 683.75C328.323 683.75 328.943 683.584 329.402 683.253C329.866 682.917 330.098 682.514 330.098 682.045C330.098 681.667 329.966 681.349 329.701 681.094C329.435 680.833 329.028 680.639 328.479 680.511L326.661 680.085C325.662 679.848 324.928 679.482 324.459 678.984C323.995 678.482 323.763 677.855 323.763 677.102C323.763 676.487 323.936 675.942 324.282 675.469C324.632 674.995 325.108 674.624 325.709 674.354C326.315 674.084 327.002 673.949 327.769 673.949C328.848 673.949 329.696 674.186 330.311 674.659C330.932 675.133 331.372 675.758 331.632 676.534ZM335.576 685.114C335.226 685.114 334.925 684.988 334.674 684.737C334.423 684.486 334.298 684.186 334.298 683.835C334.298 683.485 334.423 683.184 334.674 682.933C334.925 682.682 335.226 682.557 335.576 682.557C335.926 682.557 336.227 682.682 336.478 682.933C336.729 683.184 336.854 683.485 336.854 683.835C336.854 684.067 336.795 684.28 336.677 684.474C336.563 684.669 336.409 684.825 336.215 684.943C336.026 685.057 335.813 685.114 335.576 685.114Z" fill="black"/>
<defs>
<clipPath id="clip0_76_22">
<rect width="430.914" height="559.71" fill="white" transform="translate(3)"/>
</clipPath>
</defs>
</svg>
